<svg width="162" height="16" viewBox="0 0 162 16" fill="none" xmlns="http://www.w3.org/2000/svg">
<path d="M5.14286 7.28571C5.14286 7.13393 5.08036 6.99107 4.97321 6.88393L0.973214 2.88393C0.866071 2.77678 0.723214 2.71428 0.571429 2.71428C0.258929 2.71428 0 2.97321 0 3.28571V11.2857C0 11.5982 0.258929 11.8571 0.571429 11.8571C0.723214 11.8571 0.866071 11.7946 0.973214 11.6875L4.97321 7.6875C5.08036 7.58036 5.14286 7.4375 5.14286 7.28571ZM17.978 10.888H21.562V13H15.242V1.768H17.978V10.888ZM25.603 3.96V6.232H29.267V8.344H25.603V10.808H29.747V13H22.867V1.768H29.747V3.96H25.603ZM39.6033 1.768V3.96H36.6273V13H33.8913V3.96H30.9153V1.768H39.6033ZM42.8804 0.2L42.6724 3.736H40.8324L40.6244 0.2H42.8804ZM48.5716 13.112C47.7503 13.112 47.0143 12.9787 46.3636 12.712C45.713 12.4453 45.1903 12.0507 44.7956 11.528C44.4116 11.0053 44.209 10.376 44.1876 9.64H47.0996C47.1423 10.056 47.2863 10.376 47.5316 10.6C47.777 10.8133 48.097 10.92 48.4916 10.92C48.897 10.92 49.217 10.8293 49.4516 10.648C49.6863 10.456 49.8036 10.1947 49.8036 9.864C49.8036 9.58667 49.7076 9.35733 49.5156 9.176C49.3343 8.99467 49.105 8.84533 48.8276 8.728C48.561 8.61067 48.177 8.47733 47.6756 8.328C46.9503 8.104 46.3583 7.88 45.8996 7.656C45.441 7.432 45.0463 7.10133 44.7156 6.664C44.385 6.22667 44.2196 5.656 44.2196 4.952C44.2196 3.90667 44.5983 3.09067 45.3556 2.504C46.113 1.90667 47.0996 1.608 48.3156 1.608C49.553 1.608 50.5503 1.90667 51.3076 2.504C52.065 3.09067 52.4703 3.912 52.5236 4.968H49.5636C49.5423 4.60533 49.409 4.32267 49.1636 4.12C48.9183 3.90667 48.6036 3.8 48.2196 3.8C47.889 3.8 47.6223 3.89067 47.4196 4.072C47.217 4.24267 47.1156 4.49333 47.1156 4.824C47.1156 5.18667 47.2863 5.46933 47.6276 5.672C47.969 5.87467 48.5023 6.09333 49.2276 6.328C49.953 6.57333 50.5396 6.808 50.9876 7.032C51.4463 7.256 51.841 7.58133 52.1716 8.008C52.5023 8.43467 52.6676 8.984 52.6676 9.656C52.6676 10.296 52.5023 10.8773 52.1716 11.4C51.8516 11.9227 51.3823 12.3387 50.7636 12.648C50.145 12.9573 49.4143 13.112 48.5716 13.112ZM65.198 5.32C64.9953 4.94667 64.702 4.664 64.318 4.472C63.9447 4.26933 63.502 4.168 62.99 4.168C62.1047 4.168 61.3953 4.46133 60.862 5.048C60.3287 5.624 60.062 6.39733 60.062 7.368C60.062 8.40267 60.3393 9.21333 60.894 9.8C61.4593 10.376 62.2327 10.664 63.214 10.664C63.886 10.664 64.4513 10.4933 64.91 10.152C65.3793 9.81067 65.7207 9.32 65.934 8.68H62.462V6.664H68.414V9.208C68.2113 9.89067 67.8647 10.5253 67.374 11.112C66.894 11.6987 66.2807 12.1733 65.534 12.536C64.7873 12.8987 63.9447 13.08 63.006 13.08C61.8967 13.08 60.9047 12.84 60.03 12.36C59.166 11.8693 58.4887 11.192 57.998 10.328C57.518 9.464 57.278 8.47733 57.278 7.368C57.278 6.25867 57.518 5.272 57.998 4.408C58.4887 3.53333 59.166 2.856 60.03 2.376C60.894 1.88533 61.8807 1.64 62.99 1.64C64.334 1.64 65.4647 1.96533 66.382 2.616C67.31 3.26667 67.9233 4.168 68.222 5.32H65.198ZM72.6655 3.96V6.232H76.3295V8.344H72.6655V10.808H76.8095V13H69.9295V1.768H76.8095V3.96H72.6655ZM86.6658 1.768V3.96H83.6898V13H80.9538V3.96H77.9778V1.768H86.6658ZM95.4935 13.112C94.6722 13.112 93.9362 12.9787 93.2855 12.712C92.6348 12.4453 92.1122 12.0507 91.7175 11.528C91.3335 11.0053 91.1308 10.376 91.1095 9.64H94.0215C94.0642 10.056 94.2082 10.376 94.4535 10.6C94.6988 10.8133 95.0188 10.92 95.4135 10.92C95.8188 10.92 96.1388 10.8293 96.3735 10.648C96.6082 10.456 96.7255 10.1947 96.7255 9.864C96.7255 9.58667 96.6295 9.35733 96.4375 9.176C96.2562 8.99467 96.0268 8.84533 95.7495 8.728C95.4828 8.61067 95.0988 8.47733 94.5975 8.328C93.8722 8.104 93.2802 7.88 92.8215 7.656C92.3628 7.432 91.9682 7.10133 91.6375 6.664C91.3068 6.22667 91.1415 5.656 91.1415 4.952C91.1415 3.90667 91.5202 3.09067 92.2775 2.504C93.0348 1.90667 94.0215 1.608 95.2375 1.608C96.4748 1.608 97.4722 1.90667 98.2295 2.504C98.9868 3.09067 99.3922 3.912 99.4455 4.968H96.4855C96.4642 4.60533 96.3308 4.32267 96.0855 4.12C95.8402 3.90667 95.5255 3.8 95.1415 3.8C94.8108 3.8 94.5442 3.89067 94.3415 4.072C94.1388 4.24267 94.0375 4.49333 94.0375 4.824C94.0375 5.18667 94.2082 5.46933 94.5495 5.672C94.8908 5.87467 95.4242 6.09333 96.1495 6.328C96.8748 6.57333 97.4615 6.808 97.9095 7.032C98.3682 7.256 98.7628 7.58133 99.0935 8.008C99.4242 8.43467 99.5895 8.984 99.5895 9.656C99.5895 10.296 99.4242 10.8773 99.0935 11.4C98.7735 11.9227 98.3042 12.3387 97.6855 12.648C97.0668 12.9573 96.3362 13.112 95.4935 13.112ZM109.353 1.768V3.96H106.377V13H103.641V3.96H100.665V1.768H109.353ZM117.718 11.016H113.526L112.854 13H109.99L114.054 1.768H117.222L121.286 13H118.39L117.718 11.016ZM117.014 8.904L115.622 4.792L114.246 8.904H117.014ZM128.251 13L125.915 8.76H125.259V13H122.523V1.768H127.115C128.001 1.768 128.753 1.92267 129.371 2.232C130.001 2.54133 130.47 2.968 130.779 3.512C131.089 4.04533 131.243 4.64267 131.243 5.304C131.243 6.05067 131.03 6.71733 130.603 7.304C130.187 7.89067 129.569 8.30667 128.747 8.552L131.339 13H128.251ZM125.259 6.824H126.955C127.457 6.824 127.83 6.70133 128.075 6.456C128.331 6.21067 128.459 5.864 128.459 5.416C128.459 4.98933 128.331 4.65333 128.075 4.408C127.83 4.16267 127.457 4.04 126.955 4.04H125.259V6.824ZM141.041 1.768V3.96H138.065V13H135.329V3.96H132.353V1.768H141.041ZM145.15 3.96V6.232H148.814V8.344H145.15V10.808H149.294V13H142.414V1.768H149.294V3.96H145.15ZM155.278 1.768C156.462 1.768 157.497 2.00267 158.382 2.472C159.267 2.94133 159.95 3.60267 160.43 4.456C160.921 5.29867 161.166 6.27467 161.166 7.384C161.166 8.48267 160.921 9.45867 160.43 10.312C159.95 11.1653 159.262 11.8267 158.366 12.296C157.481 12.7653 156.451 13 155.278 13H151.07V1.768H155.278ZM155.102 10.632C156.137 10.632 156.942 10.3493 157.518 9.784C158.094 9.21867 158.382 8.41867 158.382 7.384C158.382 6.34933 158.094 5.544 157.518 4.968C156.942 4.392 156.137 4.104 155.102 4.104H153.806V10.632H155.102Z" fill="#D4D6D4"/>
<path d="M5.71875 14.6H14.2564V15.4H5.71875V14.6Z" fill="#D4D6D4"/>
<path d="M14.25 14.6H161.71V15.4H14.25V14.6Z" fill="#D4D6D4"/>
</svg>
