<svg width="65" height="133" viewBox="0 0 65 133" fill="none" xmlns="http://www.w3.org/2000/svg">
<path d="M7.824 9.52H2.96L2.064 12H0.528L4.56 0.912H6.24L10.256 12H8.72L7.824 9.52ZM7.408 8.336L5.392 2.704L3.376 8.336H7.408ZM13.4693 4.864C13.7679 4.34133 14.2053 3.91467 14.7812 3.584C15.3573 3.25333 16.0133 3.088 16.7493 3.088C17.5386 3.088 18.2479 3.27467 18.8773 3.648C19.5066 4.02133 20.0026 4.54933 20.3653 5.232C20.7279 5.904 20.9093 6.688 20.9093 7.584C20.9093 8.46933 20.7279 9.25867 20.3653 9.952C20.0026 10.6453 19.5012 11.184 18.8612 11.568C18.2319 11.952 17.5279 12.144 16.7493 12.144C15.9919 12.144 15.3253 11.9787 14.7493 11.648C14.1839 11.3173 13.7573 10.896 13.4693 10.384V12H12.0133V0.16H13.4693V4.864ZM19.4213 7.584C19.4213 6.92267 19.2879 6.34667 19.0213 5.856C18.7546 5.36533 18.3919 4.992 17.9333 4.736C17.4853 4.48 16.9893 4.352 16.4453 4.352C15.9119 4.352 15.4159 4.48533 14.9573 4.752C14.5093 5.008 14.1466 5.38667 13.8693 5.888C13.6026 6.37867 13.4693 6.94933 13.4693 7.6C13.4693 8.26133 13.6026 8.84267 13.8693 9.344C14.1466 9.83467 14.5093 10.2133 14.9573 10.48C15.4159 10.736 15.9119 10.864 16.4453 10.864C16.9893 10.864 17.4853 10.736 17.9333 10.48C18.3919 10.2133 18.7546 9.83467 19.0213 9.344C19.2879 8.84267 19.4213 8.256 19.4213 7.584ZM26.6498 12.144C25.8284 12.144 25.0818 11.9573 24.4098 11.584C23.7484 11.2107 23.2258 10.6827 22.8418 10C22.4684 9.30667 22.2818 8.50667 22.2818 7.6C22.2818 6.704 22.4738 5.91467 22.8578 5.232C23.2524 4.53867 23.7858 4.01067 24.4578 3.648C25.1298 3.27467 25.8818 3.088 26.7138 3.088C27.5458 3.088 28.2978 3.27467 28.9698 3.648C29.6418 4.01067 30.1698 4.53333 30.5538 5.216C30.9484 5.89867 31.1458 6.69333 31.1458 7.6C31.1458 8.50667 30.9431 9.30667 30.5378 10C30.1431 10.6827 29.6044 11.2107 28.9218 11.584C28.2391 11.9573 27.4818 12.144 26.6498 12.144ZM26.6498 10.864C27.1724 10.864 27.6631 10.7413 28.1218 10.496C28.5804 10.2507 28.9484 9.88267 29.2258 9.392C29.5138 8.90133 29.6578 8.304 29.6578 7.6C29.6578 6.896 29.5191 6.29867 29.2418 5.808C28.9644 5.31733 28.6018 4.95467 28.1538 4.72C27.7058 4.47467 27.2204 4.352 26.6978 4.352C26.1644 4.352 25.6738 4.47467 25.2258 4.72C24.7884 4.95467 24.4364 5.31733 24.1698 5.808C23.9031 6.29867 23.7698 6.896 23.7698 7.6C23.7698 8.31467 23.8978 8.91733 24.1538 9.408C24.4204 9.89867 24.7724 10.2667 25.2098 10.512C25.6471 10.7467 26.1271 10.864 26.6498 10.864ZM40.8361 3.232V12H39.3801V10.704C39.1028 11.152 38.7135 11.504 38.2121 11.76C37.7215 12.0053 37.1775 12.128 36.5801 12.128C35.8975 12.128 35.2841 11.9893 34.7401 11.712C34.1961 11.424 33.7641 10.9973 33.4441 10.432C33.1348 9.86667 32.9801 9.17867 32.9801 8.368V3.232H34.4201V8.176C34.4201 9.04 34.6388 9.70667 35.0761 10.176C35.5135 10.6347 36.1108 10.864 36.8681 10.864C37.6468 10.864 38.2601 10.624 38.7081 10.144C39.1561 9.664 39.3801 8.96533 39.3801 8.048V3.232H40.8361ZM45.0705 4.432V9.6C45.0705 10.0267 45.1612 10.3307 45.3425 10.512C45.5238 10.6827 45.8385 10.768 46.2865 10.768H47.3585V12H46.0465C45.2358 12 44.6278 11.8133 44.2225 11.44C43.8172 11.0667 43.6145 10.4533 43.6145 9.6V4.432H42.4785V3.232H43.6145V1.024H45.0705V3.232H47.3585V4.432H45.0705ZM6.816 46.256C7.22133 46.32 7.58933 46.4853 7.92 46.752C8.26133 47.0187 8.528 47.3493 8.72 47.744C8.92267 48.1387 9.024 48.56 9.024 49.008C9.024 49.5733 8.88 50.0853 8.592 50.544C8.304 50.992 7.88267 51.3493 7.328 51.616C6.784 51.872 6.13867 52 5.392 52H1.232V40.848H5.232C5.98933 40.848 6.63467 40.976 7.168 41.232C7.70133 41.4773 8.10133 41.8133 8.368 42.24C8.63467 42.6667 8.768 43.1467 8.768 43.68C8.768 44.3413 8.58667 44.8907 8.224 45.328C7.872 45.7547 7.40267 46.064 6.816 46.256ZM2.688 45.664H5.136C5.81867 45.664 6.34667 45.504 6.72 45.184C7.09333 44.864 7.28 44.4213 7.28 43.856C7.28 43.2907 7.09333 42.848 6.72 42.528C6.34667 42.208 5.808 42.048 5.104 42.048H2.688V45.664ZM5.264 50.8C5.98933 50.8 6.55467 50.6293 6.96 50.288C7.36533 49.9467 7.568 49.472 7.568 48.864C7.568 48.2453 7.35467 47.76 6.928 47.408C6.50133 47.0453 5.93067 46.864 5.216 46.864H2.688V50.8H5.264ZM12.5005 40.16V52H11.0445V40.16H12.5005ZM18.806 52.144C17.9847 52.144 17.238 51.9573 16.566 51.584C15.9047 51.2107 15.382 50.6827 14.998 50C14.6247 49.3067 14.438 48.5067 14.438 47.6C14.438 46.704 14.63 45.9147 15.014 45.232C15.4087 44.5387 15.942 44.0107 16.614 43.648C17.286 43.2747 18.038 43.088 18.87 43.088C19.702 43.088 20.454 43.2747 21.126 43.648C21.798 44.0107 22.326 44.5333 22.71 45.216C23.1047 45.8987 23.302 46.6933 23.302 47.6C23.302 48.5067 23.0993 49.3067 22.694 50C22.2993 50.6827 21.7607 51.2107 21.078 51.584C20.3953 51.9573 19.638 52.144 18.806 52.144ZM18.806 50.864C19.3287 50.864 19.8193 50.7413 20.278 50.496C20.7367 50.2507 21.1047 49.8827 21.382 49.392C21.67 48.9013 21.814 48.304 21.814 47.6C21.814 46.896 21.6753 46.2987 21.398 45.808C21.1207 45.3173 20.758 44.9547 20.31 44.72C19.862 44.4747 19.3767 44.352 18.854 44.352C18.3207 44.352 17.83 44.4747 17.382 44.72C16.9447 44.9547 16.5927 45.3173 16.326 45.808C16.0593 46.2987 15.926 46.896 15.926 47.6C15.926 48.3147 16.054 48.9173 16.31 49.408C16.5767 49.8987 16.9287 50.2667 17.366 50.512C17.8033 50.7467 18.2833 50.864 18.806 50.864ZM28.8324 43.088C29.5897 43.088 30.251 43.2533 30.8164 43.584C31.3924 43.9147 31.819 44.3307 32.0964 44.832V43.232H33.5684V52.192C33.5684 52.992 33.3977 53.7013 33.0564 54.32C32.715 54.9493 32.2244 55.44 31.5844 55.792C30.955 56.144 30.219 56.32 29.3764 56.32C28.2244 56.32 27.2644 56.048 26.4964 55.504C25.7284 54.96 25.275 54.2187 25.1364 53.28H26.5764C26.7364 53.8133 27.067 54.24 27.5684 54.56C28.0697 54.8907 28.6724 55.056 29.3764 55.056C30.1764 55.056 30.827 54.8053 31.3284 54.304C31.8404 53.8027 32.0964 53.0987 32.0964 52.192V50.352C31.8084 50.864 31.3817 51.2907 30.8164 51.632C30.251 51.9733 29.5897 52.144 28.8324 52.144C28.0537 52.144 27.3444 51.952 26.7044 51.568C26.075 51.184 25.579 50.6453 25.2164 49.952C24.8537 49.2587 24.6724 48.4693 24.6724 47.584C24.6724 46.688 24.8537 45.904 25.2164 45.232C25.579 44.5493 26.075 44.0213 26.7044 43.648C27.3444 43.2747 28.0537 43.088 28.8324 43.088ZM32.0964 47.6C32.0964 46.9387 31.963 46.3627 31.6964 45.872C31.4297 45.3813 31.067 45.008 30.6084 44.752C30.1604 44.4853 29.6644 44.352 29.1204 44.352C28.5764 44.352 28.0804 44.48 27.6324 44.736C27.1844 44.992 26.827 45.3653 26.5604 45.856C26.2937 46.3467 26.1604 46.9227 26.1604 47.584C26.1604 48.256 26.2937 48.8427 26.5604 49.344C26.827 49.8347 27.1844 50.2133 27.6324 50.48C28.0804 50.736 28.5764 50.864 29.1204 50.864C29.6644 50.864 30.1604 50.736 30.6084 50.48C31.067 50.2133 31.4297 49.8347 31.6964 49.344C31.963 48.8427 32.0964 48.2613 32.0964 47.6ZM0.688 86.416C0.688 85.328 0.933333 84.352 1.424 83.488C1.91467 82.6133 2.58133 81.9307 3.424 81.44C4.27733 80.9493 5.22133 80.704 6.256 80.704C7.472 80.704 8.53333 80.9973 9.44 81.584C10.3467 82.1707 11.008 83.0027 11.424 84.08H9.68C9.37067 83.408 8.92267 82.8907 8.336 82.528C7.76 82.1653 7.06667 81.984 6.256 81.984C5.47733 81.984 4.77867 82.1653 4.16 82.528C3.54133 82.8907 3.056 83.408 2.704 84.08C2.352 84.7413 2.176 85.52 2.176 86.416C2.176 87.3013 2.352 88.08 2.704 88.752C3.056 89.4133 3.54133 89.9253 4.16 90.288C4.77867 90.6507 5.47733 90.832 6.256 90.832C7.06667 90.832 7.76 90.656 8.336 90.304C8.92267 89.9413 9.37067 89.424 9.68 88.752H11.424C11.008 89.8187 10.3467 90.6453 9.44 91.232C8.53333 91.808 7.472 92.096 6.256 92.096C5.22133 92.096 4.27733 91.856 3.424 91.376C2.58133 90.8853 1.91467 90.208 1.424 89.344C0.933333 88.48 0.688 87.504 0.688 86.416ZM17.4154 92.144C16.594 92.144 15.8474 91.9573 15.1754 91.584C14.514 91.2107 13.9914 90.6827 13.6074 90C13.234 89.3067 13.0474 88.5067 13.0474 87.6C13.0474 86.704 13.2394 85.9147 13.6234 85.232C14.018 84.5387 14.5514 84.0107 15.2234 83.648C15.8954 83.2747 16.6474 83.088 17.4794 83.088C18.3114 83.088 19.0634 83.2747 19.7354 83.648C20.4074 84.0107 20.9354 84.5333 21.3194 85.216C21.714 85.8987 21.9114 86.6933 21.9114 87.6C21.9114 88.5067 21.7087 89.3067 21.3034 90C20.9087 90.6827 20.37 91.2107 19.6874 91.584C19.0047 91.9573 18.2474 92.144 17.4154 92.144ZM17.4154 90.864C17.938 90.864 18.4287 90.7413 18.8874 90.496C19.346 90.2507 19.714 89.8827 19.9914 89.392C20.2794 88.9013 20.4234 88.304 20.4234 87.6C20.4234 86.896 20.2847 86.2987 20.0074 85.808C19.73 85.3173 19.3674 84.9547 18.9194 84.72C18.4714 84.4747 17.986 84.352 17.4634 84.352C16.93 84.352 16.4394 84.4747 15.9914 84.72C15.554 84.9547 15.202 85.3173 14.9354 85.808C14.6687 86.2987 14.5354 86.896 14.5354 87.6C14.5354 88.3147 14.6634 88.9173 14.9194 89.408C15.186 89.8987 15.538 90.2667 15.9754 90.512C16.4127 90.7467 16.8927 90.864 17.4154 90.864ZM28.0978 83.072C29.1644 83.072 30.0284 83.3973 30.6898 84.048C31.3511 84.688 31.6818 85.616 31.6818 86.832V92H30.2418V87.04C30.2418 86.1653 30.0231 85.4987 29.5858 85.04C29.1484 84.5707 28.5511 84.336 27.7938 84.336C27.0258 84.336 26.4124 84.576 25.9538 85.056C25.5058 85.536 25.2818 86.2347 25.2818 87.152V92H23.8258V83.232H25.2818V84.48C25.5698 84.032 25.9591 83.6853 26.4498 83.44C26.9511 83.1947 27.5004 83.072 28.0978 83.072ZM35.8361 84.432V89.6C35.8361 90.0267 35.9268 90.3307 36.1081 90.512C36.2895 90.6827 36.6041 90.768 37.0521 90.768H38.1241V92H36.8121C36.0015 92 35.3935 91.8133 34.9881 91.44C34.5828 91.0667 34.3801 90.4533 34.3801 89.6V84.432H33.2441V83.232H34.3801V81.024H35.8361V83.232H38.1241V84.432H35.8361ZM39.3443 87.584C39.3443 86.688 39.5256 85.904 39.8883 85.232C40.2509 84.5493 40.7469 84.0213 41.3763 83.648C42.0163 83.2747 42.7256 83.088 43.5043 83.088C44.2723 83.088 44.9389 83.2533 45.5043 83.584C46.0696 83.9147 46.4909 84.3307 46.7683 84.832V83.232H48.2403V92H46.7683V90.368C46.4803 90.88 46.0483 91.3067 45.4723 91.648C44.9069 91.9787 44.2456 92.144 43.4883 92.144C42.7096 92.144 42.0056 91.952 41.3763 91.568C40.7469 91.184 40.2509 90.6453 39.8883 89.952C39.5256 89.2587 39.3443 88.4693 39.3443 87.584ZM46.7683 87.6C46.7683 86.9387 46.6349 86.3627 46.3683 85.872C46.1016 85.3813 45.7389 85.008 45.2803 84.752C44.8323 84.4853 44.3363 84.352 43.7923 84.352C43.2483 84.352 42.7523 84.48 42.3043 84.736C41.8563 84.992 41.4989 85.3653 41.2323 85.856C40.9656 86.3467 40.8323 86.9227 40.8323 87.584C40.8323 88.256 40.9656 88.8427 41.2323 89.344C41.4989 89.8347 41.8563 90.2133 42.3043 90.48C42.7523 90.736 43.2483 90.864 43.7923 90.864C44.3363 90.864 44.8323 90.736 45.2803 90.48C45.7389 90.2133 46.1016 89.8347 46.3683 89.344C46.6349 88.8427 46.7683 88.2613 46.7683 87.6ZM50.1568 87.6C50.1568 86.6933 50.3381 85.904 50.7008 85.232C51.0634 84.5493 51.5648 84.0213 52.2048 83.648C52.8554 83.2747 53.5968 83.088 54.4288 83.088C55.5061 83.088 56.3914 83.3493 57.0848 83.872C57.7888 84.3947 58.2528 85.12 58.4768 86.048H56.9088C56.7594 85.5147 56.4661 85.0933 56.0288 84.784C55.6021 84.4747 55.0688 84.32 54.4288 84.32C53.5968 84.32 52.9248 84.608 52.4128 85.184C51.9008 85.7493 51.6448 86.5547 51.6448 87.6C51.6448 88.656 51.9008 89.472 52.4128 90.048C52.9248 90.624 53.5968 90.912 54.4288 90.912C55.0688 90.912 55.6021 90.7627 56.0288 90.464C56.4554 90.1653 56.7488 89.7387 56.9088 89.184H58.4768C58.2421 90.08 57.7728 90.8 57.0688 91.344C56.3648 91.8773 55.4848 92.144 54.4288 92.144C53.5968 92.144 52.8554 91.9573 52.2048 91.584C51.5648 91.2107 51.0634 90.6827 50.7008 90C50.3381 89.3173 50.1568 88.5173 50.1568 87.6ZM62.1955 84.432V89.6C62.1955 90.0267 62.2862 90.3307 62.4675 90.512C62.6488 90.6827 62.9635 90.768 63.4115 90.768H64.4835V92H63.1715C62.3608 92 61.7528 91.8133 61.3475 91.44C60.9422 91.0667 60.7395 90.4533 60.7395 89.6V84.432H59.6035V83.232H60.7395V81.024H62.1955V83.232H64.4835V84.432H62.1955ZM6.848 120.848V129.088C6.848 130.005 6.56533 130.741 6 131.296C5.43467 131.84 4.688 132.112 3.76 132.112C2.82133 132.112 2.06933 131.835 1.504 131.28C0.938667 130.715 0.656 129.947 0.656 128.976H2.112C2.12267 129.52 2.26133 129.963 2.528 130.304C2.80533 130.645 3.216 130.816 3.76 130.816C4.304 130.816 4.70933 130.656 4.976 130.336C5.24267 130.005 5.376 129.589 5.376 129.088V120.848H6.848ZM13.5404 132.144C12.719 132.144 11.9724 131.957 11.3004 131.584C10.639 131.211 10.1164 130.683 9.73238 130C9.35904 129.307 9.17238 128.507 9.17238 127.6C9.17238 126.704 9.36438 125.915 9.74838 125.232C10.143 124.539 10.6764 124.011 11.3484 123.648C12.0204 123.275 12.7724 123.088 13.6044 123.088C14.4364 123.088 15.1884 123.275 15.8604 123.648C16.5324 124.011 17.0604 124.533 17.4444 125.216C17.839 125.899 18.0364 126.693 18.0364 127.6C18.0364 128.507 17.8337 129.307 17.4284 130C17.0337 130.683 16.495 131.211 15.8124 131.584C15.1297 131.957 14.3724 132.144 13.5404 132.144ZM13.5404 130.864C14.063 130.864 14.5537 130.741 15.0124 130.496C15.471 130.251 15.839 129.883 16.1164 129.392C16.4044 128.901 16.5484 128.304 16.5484 127.6C16.5484 126.896 16.4097 126.299 16.1324 125.808C15.855 125.317 15.4924 124.955 15.0444 124.72C14.5964 124.475 14.111 124.352 13.5884 124.352C13.055 124.352 12.5644 124.475 12.1164 124.72C11.679 124.955 11.327 125.317 11.0604 125.808C10.7937 126.299 10.6604 126.896 10.6604 127.6C10.6604 128.315 10.7884 128.917 11.0444 129.408C11.311 129.899 11.663 130.267 12.1004 130.512C12.5377 130.747 13.0177 130.864 13.5404 130.864ZM21.4068 124.864C21.7054 124.341 22.1428 123.915 22.7188 123.584C23.2948 123.253 23.9508 123.088 24.6868 123.088C25.4761 123.088 26.1854 123.275 26.8148 123.648C27.4441 124.021 27.9401 124.549 28.3028 125.232C28.6654 125.904 28.8468 126.688 28.8468 127.584C28.8468 128.469 28.6654 129.259 28.3028 129.952C27.9401 130.645 27.4387 131.184 26.7987 131.568C26.1694 131.952 25.4654 132.144 24.6868 132.144C23.9294 132.144 23.2628 131.979 22.6868 131.648C22.1214 131.317 21.6948 130.896 21.4068 130.384V132H19.9508V120.16H21.4068V124.864ZM27.3588 127.584C27.3588 126.923 27.2254 126.347 26.9588 125.856C26.6921 125.365 26.3294 124.992 25.8708 124.736C25.4228 124.48 24.9268 124.352 24.3828 124.352C23.8494 124.352 23.3534 124.485 22.8948 124.752C22.4468 125.008 22.0841 125.387 21.8068 125.888C21.5401 126.379 21.4068 126.949 21.4068 127.6C21.4068 128.261 21.5401 128.843 21.8068 129.344C22.0841 129.835 22.4468 130.213 22.8948 130.48C23.3534 130.736 23.8494 130.864 24.3828 130.864C24.9268 130.864 25.4228 130.736 25.8708 130.48C26.3294 130.213 26.6921 129.835 26.9588 129.344C27.2254 128.843 27.3588 128.256 27.3588 127.584ZM33.8673 132.144C33.1953 132.144 32.5926 132.032 32.0593 131.808C31.5259 131.573 31.1046 131.253 30.7953 130.848C30.4859 130.432 30.3153 129.957 30.2833 129.424H31.7873C31.8299 129.861 32.0326 130.219 32.3953 130.496C32.7686 130.773 33.2539 130.912 33.8513 130.912C34.4059 130.912 34.8433 130.789 35.1633 130.544C35.4833 130.299 35.6433 129.989 35.6433 129.616C35.6433 129.232 35.4726 128.949 35.1313 128.768C34.7899 128.576 34.2619 128.389 33.5473 128.208C32.8966 128.037 32.3633 127.867 31.9473 127.696C31.5419 127.515 31.1899 127.253 30.8913 126.912C30.6033 126.56 30.4593 126.101 30.4593 125.536C30.4593 125.088 30.5926 124.677 30.8593 124.304C31.1259 123.931 31.5046 123.637 31.9953 123.424C32.4859 123.2 33.0459 123.088 33.6753 123.088C34.6459 123.088 35.4299 123.333 36.0273 123.824C36.6246 124.315 36.9446 124.987 36.9873 125.84H35.5313C35.4993 125.381 35.3126 125.013 34.9713 124.736C34.6406 124.459 34.1926 124.32 33.6273 124.32C33.1046 124.32 32.6886 124.432 32.3793 124.656C32.0699 124.88 31.9153 125.173 31.9153 125.536C31.9153 125.824 32.0059 126.064 32.1873 126.256C32.3793 126.437 32.6139 126.587 32.8913 126.704C33.1793 126.811 33.5739 126.933 34.0753 127.072C34.7046 127.243 35.2166 127.413 35.6113 127.584C36.0059 127.744 36.3419 127.989 36.6193 128.32C36.9073 128.651 37.0566 129.083 37.0673 129.616C37.0673 130.096 36.9339 130.528 36.6673 130.912C36.4006 131.296 36.0219 131.6 35.5313 131.824C35.0513 132.037 34.4966 132.144 33.8673 132.144Z" fill="#B6C197"/>
</svg>
