<svg width="133" height="136" viewBox="0 0 133 136" fill="none" xmlns="http://www.w3.org/2000/svg">
<path d="M9.824 1.848V13H8.368V7.944H2.688V13H1.232V1.848H2.688V6.744H8.368V1.848H9.824ZM16.1341 13.144C15.3128 13.144 14.5661 12.9573 13.8941 12.584C13.2328 12.2107 12.7101 11.6827 12.3261 11C11.9528 10.3067 11.7661 9.50667 11.7661 8.6C11.7661 7.704 11.9581 6.91467 12.3421 6.232C12.7368 5.53867 13.2701 5.01067 13.9421 4.648C14.6141 4.27467 15.3661 4.088 16.1981 4.088C17.0301 4.088 17.7821 4.27467 18.4541 4.648C19.1261 5.01067 19.6541 5.53333 20.0381 6.216C20.4328 6.89867 20.6301 7.69333 20.6301 8.6C20.6301 9.50667 20.4275 10.3067 20.0221 11C19.6275 11.6827 19.0888 12.2107 18.4061 12.584C17.7235 12.9573 16.9661 13.144 16.1341 13.144ZM16.1341 11.864C16.6568 11.864 17.1475 11.7413 17.6061 11.496C18.0648 11.2507 18.4328 10.8827 18.7101 10.392C18.9981 9.90133 19.1421 9.304 19.1421 8.6C19.1421 7.896 19.0035 7.29867 18.7261 6.808C18.4488 6.31733 18.0861 5.95467 17.6381 5.72C17.1901 5.47467 16.7048 5.352 16.1821 5.352C15.6488 5.352 15.1581 5.47467 14.7101 5.72C14.2728 5.95467 13.9208 6.31733 13.6541 6.808C13.3875 7.29867 13.2541 7.896 13.2541 8.6C13.2541 9.31467 13.3821 9.91733 13.6381 10.408C13.9048 10.8987 14.2568 11.2667 14.6941 11.512C15.1315 11.7467 15.6115 11.864 16.1341 11.864ZM34.2245 4.232L31.4885 13H29.9845L27.8725 6.04L25.7605 13H24.2565L21.5045 4.232H22.9925L25.0085 11.592L27.1845 4.232H28.6725L30.8005 11.608L32.7845 4.232H34.2245ZM40.6871 2.808C40.4098 2.808 40.1751 2.712 39.9831 2.52C39.7911 2.328 39.6951 2.09333 39.6951 1.816C39.6951 1.53867 39.7911 1.304 39.9831 1.112C40.1751 0.919999 40.4098 0.823999 40.6871 0.823999C40.9538 0.823999 41.1778 0.919999 41.3591 1.112C41.5511 1.304 41.6471 1.53867 41.6471 1.816C41.6471 2.09333 41.5511 2.328 41.3591 2.52C41.1778 2.712 40.9538 2.808 40.6871 2.808ZM41.3911 4.232V13H39.9351V4.232H41.3911ZM45.6486 5.432V10.6C45.6486 11.0267 45.7393 11.3307 45.9206 11.512C46.102 11.6827 46.4166 11.768 46.8646 11.768H47.9366V13H46.6246C45.814 13 45.206 12.8133 44.8006 12.44C44.3953 12.0667 44.1926 11.4533 44.1926 10.6V5.432H43.0566V4.232H44.1926V2.024H45.6486V4.232H47.9366V5.432H45.6486ZM65.6464 4.232L62.9104 13H61.4064L59.2944 6.04L57.1824 13H55.6784L52.9264 4.232H54.4144L56.4304 11.592L58.6064 4.232H60.0944L62.2224 11.608L64.2064 4.232H65.6464ZM70.9154 13.144C70.094 13.144 69.3474 12.9573 68.6754 12.584C68.014 12.2107 67.4914 11.6827 67.1074 11C66.734 10.3067 66.5474 9.50667 66.5474 8.6C66.5474 7.704 66.7394 6.91467 67.1234 6.232C67.518 5.53867 68.0514 5.01067 68.7234 4.648C69.3954 4.27467 70.1474 4.088 70.9794 4.088C71.8114 4.088 72.5634 4.27467 73.2354 4.648C73.9074 5.01067 74.4354 5.53333 74.8194 6.216C75.214 6.89867 75.4114 7.69333 75.4114 8.6C75.4114 9.50667 75.2087 10.3067 74.8034 11C74.4087 11.6827 73.87 12.2107 73.1874 12.584C72.5047 12.9573 71.7474 13.144 70.9154 13.144ZM70.9154 11.864C71.438 11.864 71.9287 11.7413 72.3874 11.496C72.846 11.2507 73.214 10.8827 73.4914 10.392C73.7794 9.90133 73.9234 9.304 73.9234 8.6C73.9234 7.896 73.7847 7.29867 73.5074 6.808C73.23 6.31733 72.8674 5.95467 72.4194 5.72C71.9714 5.47467 71.486 5.352 70.9634 5.352C70.43 5.352 69.9394 5.47467 69.4914 5.72C69.054 5.95467 68.702 6.31733 68.4354 6.808C68.1687 7.29867 68.0354 7.896 68.0354 8.6C68.0354 9.31467 68.1634 9.91733 68.4194 10.408C68.686 10.8987 69.038 11.2667 69.4754 11.512C69.9127 11.7467 70.3927 11.864 70.9154 11.864ZM78.7818 5.656C79.0378 5.15467 79.4004 4.76533 79.8698 4.488C80.3498 4.21067 80.9311 4.072 81.6138 4.072V5.576H81.2298C79.5978 5.576 78.7818 6.46133 78.7818 8.232V13H77.3258V4.232H78.7818V5.656ZM88.1905 13L84.7505 9.128V13H83.2945V1.16H84.7505V8.12L88.1265 4.232H90.1585L86.0305 8.6L90.1745 13H88.1905ZM94.6329 13.144C93.9609 13.144 93.3582 13.032 92.8249 12.808C92.2915 12.5733 91.8702 12.2533 91.5609 11.848C91.2515 11.432 91.0809 10.9573 91.0489 10.424H92.5529C92.5955 10.8613 92.7982 11.2187 93.1609 11.496C93.5342 11.7733 94.0195 11.912 94.6169 11.912C95.1715 11.912 95.6089 11.7893 95.9289 11.544C96.2489 11.2987 96.4089 10.9893 96.4089 10.616C96.4089 10.232 96.2382 9.94933 95.8969 9.768C95.5555 9.576 95.0275 9.38933 94.3129 9.208C93.6622 9.03733 93.1289 8.86667 92.7129 8.696C92.3075 8.51467 91.9555 8.25333 91.6569 7.912C91.3689 7.56 91.2249 7.10133 91.2249 6.536C91.2249 6.088 91.3582 5.67733 91.6249 5.304C91.8915 4.93067 92.2702 4.63733 92.7609 4.424C93.2515 4.2 93.8115 4.088 94.4409 4.088C95.4115 4.088 96.1955 4.33333 96.7929 4.824C97.3902 5.31467 97.7102 5.98667 97.7529 6.84H96.2969C96.2649 6.38133 96.0782 6.01333 95.7369 5.736C95.4062 5.45867 94.9582 5.32 94.3929 5.32C93.8702 5.32 93.4542 5.432 93.1449 5.656C92.8355 5.88 92.6809 6.17333 92.6809 6.536C92.6809 6.824 92.7715 7.064 92.9529 7.256C93.1449 7.43733 93.3795 7.58667 93.6569 7.704C93.9449 7.81067 94.3395 7.93333 94.8409 8.072C95.4702 8.24267 95.9822 8.41333 96.3769 8.584C96.7715 8.744 97.1075 8.98933 97.3849 9.32C97.6729 9.65067 97.8222 10.0827 97.8329 10.616C97.8329 11.096 97.6995 11.528 97.4329 11.912C97.1662 12.296 96.7875 12.6 96.2969 12.824C95.8169 13.0373 95.2622 13.144 94.6329 13.144ZM0.688 47.416C0.688 46.328 0.933333 45.352 1.424 44.488C1.91467 43.6133 2.58133 42.9307 3.424 42.44C4.27733 41.9493 5.22133 41.704 6.256 41.704C7.472 41.704 8.53333 41.9973 9.44 42.584C10.3467 43.1707 11.008 44.0027 11.424 45.08H9.68C9.37067 44.408 8.92267 43.8907 8.336 43.528C7.76 43.1653 7.06667 42.984 6.256 42.984C5.47733 42.984 4.77867 43.1653 4.16 43.528C3.54133 43.8907 3.056 44.408 2.704 45.08C2.352 45.7413 2.176 46.52 2.176 47.416C2.176 48.3013 2.352 49.08 2.704 49.752C3.056 50.4133 3.54133 50.9253 4.16 51.288C4.77867 51.6507 5.47733 51.832 6.256 51.832C7.06667 51.832 7.76 51.656 8.336 51.304C8.92267 50.9413 9.37067 50.424 9.68 49.752H11.424C11.008 50.8187 10.3467 51.6453 9.44 52.232C8.53333 52.808 7.472 53.096 6.256 53.096C5.22133 53.096 4.27733 52.856 3.424 52.376C2.58133 51.8853 1.91467 51.208 1.424 50.344C0.933333 49.48 0.688 48.504 0.688 47.416ZM17.4154 53.144C16.594 53.144 15.8474 52.9573 15.1754 52.584C14.514 52.2107 13.9914 51.6827 13.6074 51C13.234 50.3067 13.0474 49.5067 13.0474 48.6C13.0474 47.704 13.2394 46.9147 13.6234 46.232C14.018 45.5387 14.5514 45.0107 15.2234 44.648C15.8954 44.2747 16.6474 44.088 17.4794 44.088C18.3114 44.088 19.0634 44.2747 19.7354 44.648C20.4074 45.0107 20.9354 45.5333 21.3194 46.216C21.714 46.8987 21.9114 47.6933 21.9114 48.6C21.9114 49.5067 21.7087 50.3067 21.3034 51C20.9087 51.6827 20.37 52.2107 19.6874 52.584C19.0047 52.9573 18.2474 53.144 17.4154 53.144ZM17.4154 51.864C17.938 51.864 18.4287 51.7413 18.8874 51.496C19.346 51.2507 19.714 50.8827 19.9914 50.392C20.2794 49.9013 20.4234 49.304 20.4234 48.6C20.4234 47.896 20.2847 47.2987 20.0074 46.808C19.73 46.3173 19.3674 45.9547 18.9194 45.72C18.4714 45.4747 17.986 45.352 17.4634 45.352C16.93 45.352 16.4394 45.4747 15.9914 45.72C15.554 45.9547 15.202 46.3173 14.9354 46.808C14.6687 47.2987 14.5354 47.896 14.5354 48.6C14.5354 49.3147 14.6634 49.9173 14.9194 50.408C15.186 50.8987 15.538 51.2667 15.9754 51.512C16.4127 51.7467 16.8927 51.864 17.4154 51.864ZM28.0978 44.072C29.1644 44.072 30.0284 44.3973 30.6898 45.048C31.3511 45.688 31.6818 46.616 31.6818 47.832V53H30.2418V48.04C30.2418 47.1653 30.0231 46.4987 29.5858 46.04C29.1484 45.5707 28.5511 45.336 27.7938 45.336C27.0258 45.336 26.4124 45.576 25.9538 46.056C25.5058 46.536 25.2818 47.2347 25.2818 48.152V53H23.8258V44.232H25.2818V45.48C25.5698 45.032 25.9591 44.6853 26.4498 44.44C26.9511 44.1947 27.5004 44.072 28.0978 44.072ZM35.8361 45.432V50.6C35.8361 51.0267 35.9268 51.3307 36.1081 51.512C36.2895 51.6827 36.6041 51.768 37.0521 51.768H38.1241V53H36.8121C36.0015 53 35.3935 52.8133 34.9881 52.44C34.5828 52.0667 34.3801 51.4533 34.3801 50.6V45.432H33.2441V44.232H34.3801V42.024H35.8361V44.232H38.1241V45.432H35.8361ZM39.3443 48.584C39.3443 47.688 39.5256 46.904 39.8883 46.232C40.2509 45.5493 40.7469 45.0213 41.3763 44.648C42.0163 44.2747 42.7256 44.088 43.5043 44.088C44.2723 44.088 44.9389 44.2533 45.5043 44.584C46.0696 44.9147 46.4909 45.3307 46.7683 45.832V44.232H48.2403V53H46.7683V51.368C46.4803 51.88 46.0483 52.3067 45.4723 52.648C44.9069 52.9787 44.2456 53.144 43.4883 53.144C42.7096 53.144 42.0056 52.952 41.3763 52.568C40.7469 52.184 40.2509 51.6453 39.8883 50.952C39.5256 50.2587 39.3443 49.4693 39.3443 48.584ZM46.7683 48.6C46.7683 47.9387 46.6349 47.3627 46.3683 46.872C46.1016 46.3813 45.7389 46.008 45.2803 45.752C44.8323 45.4853 44.3363 45.352 43.7923 45.352C43.2483 45.352 42.7523 45.48 42.3043 45.736C41.8563 45.992 41.4989 46.3653 41.2323 46.856C40.9656 47.3467 40.8323 47.9227 40.8323 48.584C40.8323 49.256 40.9656 49.8427 41.2323 50.344C41.4989 50.8347 41.8563 51.2133 42.3043 51.48C42.7523 51.736 43.2483 51.864 43.7923 51.864C44.3363 51.864 44.8323 51.736 45.2803 51.48C45.7389 51.2133 46.1016 50.8347 46.3683 50.344C46.6349 49.8427 46.7683 49.2613 46.7683 48.6ZM50.1568 48.6C50.1568 47.6933 50.3381 46.904 50.7008 46.232C51.0634 45.5493 51.5648 45.0213 52.2048 44.648C52.8554 44.2747 53.5968 44.088 54.4288 44.088C55.5061 44.088 56.3914 44.3493 57.0848 44.872C57.7888 45.3947 58.2528 46.12 58.4768 47.048H56.9088C56.7594 46.5147 56.4661 46.0933 56.0288 45.784C55.6021 45.4747 55.0688 45.32 54.4288 45.32C53.5968 45.32 52.9248 45.608 52.4128 46.184C51.9008 46.7493 51.6448 47.5547 51.6448 48.6C51.6448 49.656 51.9008 50.472 52.4128 51.048C52.9248 51.624 53.5968 51.912 54.4288 51.912C55.0688 51.912 55.6021 51.7627 56.0288 51.464C56.4554 51.1653 56.7488 50.7387 56.9088 50.184H58.4768C58.2421 51.08 57.7728 51.8 57.0688 52.344C56.3648 52.8773 55.4848 53.144 54.4288 53.144C53.5968 53.144 52.8554 52.9573 52.2048 52.584C51.5648 52.2107 51.0634 51.6827 50.7008 51C50.3381 50.3173 50.1568 49.5173 50.1568 48.6ZM62.1955 45.432V50.6C62.1955 51.0267 62.2862 51.3307 62.4675 51.512C62.6488 51.6827 62.9635 51.768 63.4115 51.768H64.4835V53H63.1715C62.3608 53 61.7528 52.8133 61.3475 52.44C60.9422 52.0667 60.7395 51.4533 60.7395 50.6V45.432H59.6035V44.232H60.7395V42.024H62.1955V44.232H64.4835V45.432H62.1955ZM74.0493 53.112C73.3133 53.112 72.6519 52.984 72.0653 52.728C71.4893 52.4613 71.0359 52.0987 70.7053 51.64C70.3746 51.1707 70.2039 50.632 70.1933 50.024H71.7453C71.7986 50.5467 72.0119 50.9893 72.3853 51.352C72.7693 51.704 73.3239 51.88 74.0493 51.88C74.7426 51.88 75.2866 51.7093 75.6813 51.368C76.0866 51.016 76.2893 50.568 76.2893 50.024C76.2893 49.5973 76.1719 49.2507 75.9373 48.984C75.7026 48.7173 75.4093 48.5147 75.0573 48.376C74.7053 48.2373 74.2306 48.088 73.6333 47.928C72.8973 47.736 72.3053 47.544 71.8573 47.352C71.4199 47.16 71.0413 46.8613 70.7213 46.456C70.4119 46.04 70.2573 45.4853 70.2573 44.792C70.2573 44.184 70.4119 43.6453 70.7213 43.176C71.0306 42.7067 71.4626 42.344 72.0173 42.088C72.5826 41.832 73.2279 41.704 73.9533 41.704C74.9986 41.704 75.8519 41.9653 76.5133 42.488C77.1853 43.0107 77.5639 43.704 77.6493 44.568H76.0493C75.9959 44.1413 75.7719 43.768 75.3773 43.448C74.9826 43.1173 74.4599 42.952 73.8093 42.952C73.2013 42.952 72.7053 43.112 72.3213 43.432C71.9373 43.7413 71.7453 44.1787 71.7453 44.744C71.7453 45.1493 71.8573 45.48 72.0813 45.736C72.3159 45.992 72.5986 46.1893 72.9293 46.328C73.2706 46.456 73.7453 46.6053 74.3533 46.776C75.0893 46.9787 75.6813 47.1813 76.1293 47.384C76.5773 47.576 76.9613 47.88 77.2812 48.296C77.6013 48.7013 77.7613 49.256 77.7613 49.96C77.7613 50.504 77.6173 51.016 77.3293 51.496C77.0413 51.976 76.6146 52.3653 76.0493 52.664C75.4839 52.9627 74.8173 53.112 74.0493 53.112ZM87.6799 44.232V53H86.2239V51.704C85.9465 52.152 85.5572 52.504 85.0559 52.76C84.5652 53.0053 84.0212 53.128 83.4239 53.128C82.7412 53.128 82.1279 52.9893 81.5839 52.712C81.0399 52.424 80.6079 51.9973 80.2879 51.432C79.9785 50.8667 79.8239 50.1787 79.8239 49.368V44.232H81.2639V49.176C81.2639 50.04 81.4825 50.7067 81.9199 51.176C82.3572 51.6347 82.9545 51.864 83.7119 51.864C84.4905 51.864 85.1039 51.624 85.5519 51.144C85.9999 50.664 86.2239 49.9653 86.2239 49.048V44.232H87.6799ZM91.5943 45.848C91.8823 45.3467 92.3089 44.9307 92.8743 44.6C93.4503 44.2587 94.1169 44.088 94.8743 44.088C95.6529 44.088 96.3569 44.2747 96.9862 44.648C97.6262 45.0213 98.1276 45.5493 98.4903 46.232C98.8529 46.904 99.0343 47.688 99.0343 48.584C99.0343 49.4693 98.8529 50.2587 98.4903 50.952C98.1276 51.6453 97.6262 52.184 96.9862 52.568C96.3569 52.952 95.6529 53.144 94.8743 53.144C94.1276 53.144 93.4663 52.9787 92.8903 52.648C92.3249 52.3067 91.8929 51.8853 91.5943 51.384V57.16H90.1383V44.232H91.5943V45.848ZM97.5463 48.584C97.5463 47.9227 97.4129 47.3467 97.1463 46.856C96.8796 46.3653 96.5169 45.992 96.0583 45.736C95.6103 45.48 95.1143 45.352 94.5703 45.352C94.0369 45.352 93.5409 45.4853 93.0823 45.752C92.6343 46.008 92.2716 46.3867 91.9943 46.888C91.7276 47.3787 91.5943 47.9493 91.5943 48.6C91.5943 49.2613 91.7276 49.8427 91.9943 50.344C92.2716 50.8347 92.6343 51.2133 93.0823 51.48C93.5409 51.736 94.0369 51.864 94.5703 51.864C95.1143 51.864 95.6103 51.736 96.0583 51.48C96.5169 51.2133 96.8796 50.8347 97.1463 50.344C97.4129 49.8427 97.5463 49.256 97.5463 48.584ZM102.407 45.848C102.695 45.3467 103.121 44.9307 103.687 44.6C104.263 44.2587 104.929 44.088 105.687 44.088C106.465 44.088 107.169 44.2747 107.799 44.648C108.439 45.0213 108.94 45.5493 109.303 46.232C109.665 46.904 109.847 47.688 109.847 48.584C109.847 49.4693 109.665 50.2587 109.303 50.952C108.94 51.6453 108.439 52.184 107.799 52.568C107.169 52.952 106.465 53.144 105.687 53.144C104.94 53.144 104.279 52.9787 103.703 52.648C103.137 52.3067 102.705 51.8853 102.407 51.384V57.16H100.951V44.232H102.407V45.848ZM108.359 48.584C108.359 47.9227 108.225 47.3467 107.959 46.856C107.692 46.3653 107.329 45.992 106.871 45.736C106.423 45.48 105.927 45.352 105.383 45.352C104.849 45.352 104.353 45.4853 103.895 45.752C103.447 46.008 103.084 46.3867 102.807 46.888C102.54 47.3787 102.407 47.9493 102.407 48.6C102.407 49.2613 102.54 49.8427 102.807 50.344C103.084 50.8347 103.447 51.2133 103.895 51.48C104.353 51.736 104.849 51.864 105.383 51.864C105.927 51.864 106.423 51.736 106.871 51.48C107.329 51.2133 107.692 50.8347 107.959 50.344C108.225 49.8427 108.359 49.256 108.359 48.584ZM115.587 53.144C114.766 53.144 114.019 52.9573 113.347 52.584C112.686 52.2107 112.163 51.6827 111.779 51C111.406 50.3067 111.219 49.5067 111.219 48.6C111.219 47.704 111.411 46.9147 111.795 46.232C112.19 45.5387 112.723 45.0107 113.395 44.648C114.067 44.2747 114.819 44.088 115.651 44.088C116.483 44.088 117.235 44.2747 117.907 44.648C118.579 45.0107 119.107 45.5333 119.491 46.216C119.886 46.8987 120.083 47.6933 120.083 48.6C120.083 49.5067 119.881 50.3067 119.475 51C119.081 51.6827 118.542 52.2107 117.859 52.584C117.177 52.9573 116.419 53.144 115.587 53.144ZM115.587 51.864C116.11 51.864 116.601 51.7413 117.059 51.496C117.518 51.2507 117.886 50.8827 118.163 50.392C118.451 49.9013 118.595 49.304 118.595 48.6C118.595 47.896 118.457 47.2987 118.179 46.808C117.902 46.3173 117.539 45.9547 117.091 45.72C116.643 45.4747 116.158 45.352 115.635 45.352C115.102 45.352 114.611 45.4747 114.163 45.72C113.726 45.9547 113.374 46.3173 113.107 46.808C112.841 47.2987 112.707 47.896 112.707 48.6C112.707 49.3147 112.835 49.9173 113.091 50.408C113.358 50.8987 113.71 51.2667 114.147 51.512C114.585 51.7467 115.065 51.864 115.587 51.864ZM123.454 45.656C123.71 45.1547 124.072 44.7653 124.542 44.488C125.022 44.2107 125.603 44.072 126.286 44.072V45.576H125.902C124.27 45.576 123.454 46.4613 123.454 48.232V53H121.998V44.232H123.454V45.656ZM129.742 45.432V50.6C129.742 51.0267 129.833 51.3307 130.014 51.512C130.196 51.6827 130.51 51.768 130.958 51.768H132.03V53H130.718C129.908 53 129.3 52.8133 128.894 52.44C128.489 52.0667 128.286 51.4533 128.286 50.6V45.432H127.15V44.232H128.286V42.024H129.742V44.232H132.03V45.432H129.742ZM8.688 85.112C8.688 86.04 8.368 86.8133 7.728 87.432C7.09867 88.04 6.13333 88.344 4.832 88.344H2.688V93H1.232V81.848H4.832C6.09067 81.848 7.04533 82.152 7.696 82.76C8.35733 83.368 8.688 84.152 8.688 85.112ZM4.832 87.144C5.64267 87.144 6.24 86.968 6.624 86.616C7.008 86.264 7.2 85.7627 7.2 85.112C7.2 83.736 6.41067 83.048 4.832 83.048H2.688V87.144H4.832ZM11.9536 85.656C12.2096 85.1547 12.5723 84.7653 13.0416 84.488C13.5216 84.2107 14.103 84.072 14.7856 84.072V85.576H14.4016C12.7696 85.576 11.9536 86.4613 11.9536 88.232V93H10.4976V84.232H11.9536V85.656ZM17.2184 82.808C16.941 82.808 16.7064 82.712 16.5144 82.52C16.3224 82.328 16.2264 82.0933 16.2264 81.816C16.2264 81.5387 16.3224 81.304 16.5144 81.112C16.7064 80.92 16.941 80.824 17.2184 80.824C17.485 80.824 17.709 80.92 17.8904 81.112C18.0824 81.304 18.1784 81.5387 18.1784 81.816C18.1784 82.0933 18.0824 82.328 17.8904 82.52C17.709 82.712 17.485 82.808 17.2184 82.808ZM17.9224 84.232V93H16.4664V84.232H17.9224ZM23.6679 91.656L26.3879 84.232H27.9399L24.4999 93H22.8039L19.3639 84.232H20.9319L23.6679 91.656ZM28.8286 88.584C28.8286 87.688 29.01 86.904 29.3726 86.232C29.7353 85.5493 30.2313 85.0213 30.8606 84.648C31.5006 84.2747 32.21 84.088 32.9886 84.088C33.7566 84.088 34.4233 84.2533 34.9886 84.584C35.554 84.9147 35.9753 85.3307 36.2526 85.832V84.232H37.7246V93H36.2526V91.368C35.9646 91.88 35.5326 92.3067 34.9566 92.648C34.3913 92.9787 33.73 93.144 32.9726 93.144C32.194 93.144 31.49 92.952 30.8606 92.568C30.2313 92.184 29.7353 91.6453 29.3726 90.952C29.01 90.2587 28.8286 89.4693 28.8286 88.584ZM36.2526 88.6C36.2526 87.9387 36.1193 87.3627 35.8526 86.872C35.586 86.3813 35.2233 86.008 34.7646 85.752C34.3166 85.4853 33.8206 85.352 33.2766 85.352C32.7326 85.352 32.2366 85.48 31.7886 85.736C31.3406 85.992 30.9833 86.3653 30.7166 86.856C30.45 87.3467 30.3166 87.9227 30.3166 88.584C30.3166 89.256 30.45 89.8427 30.7166 90.344C30.9833 90.8347 31.3406 91.2133 31.7886 91.48C32.2366 91.736 32.7326 91.864 33.2766 91.864C33.8206 91.864 34.3166 91.736 34.7646 91.48C35.2233 91.2133 35.586 90.8347 35.8526 90.344C36.1193 89.8427 36.2526 89.2613 36.2526 88.6ZM39.6411 88.6C39.6411 87.6933 39.8225 86.904 40.1851 86.232C40.5478 85.5493 41.0491 85.0213 41.6891 84.648C42.3398 84.2747 43.0811 84.088 43.9131 84.088C44.9905 84.088 45.8758 84.3493 46.5691 84.872C47.2731 85.3947 47.7371 86.12 47.9611 87.048H46.3931C46.2438 86.5147 45.9505 86.0933 45.5131 85.784C45.0865 85.4747 44.5531 85.32 43.9131 85.32C43.0811 85.32 42.4091 85.608 41.8971 86.184C41.3851 86.7493 41.1291 87.5547 41.1291 88.6C41.1291 89.656 41.3851 90.472 41.8971 91.048C42.4091 91.624 43.0811 91.912 43.9131 91.912C44.5531 91.912 45.0865 91.7627 45.5131 91.464C45.9398 91.1653 46.2331 90.7387 46.3931 90.184H47.9611C47.7265 91.08 47.2571 91.8 46.5531 92.344C45.8491 92.8773 44.9691 93.144 43.9131 93.144C43.0811 93.144 42.3398 92.9573 41.6891 92.584C41.0491 92.2107 40.5478 91.6827 40.1851 91C39.8225 90.3173 39.6411 89.5173 39.6411 88.6ZM57.4559 84.232L52.1759 97.128H50.6719L52.3999 92.904L48.8639 84.232H50.4799L53.2319 91.336L55.9519 84.232H57.4559ZM70.6411 85.112C70.6411 86.04 70.3211 86.8133 69.6811 87.432C69.0518 88.04 68.0865 88.344 66.7851 88.344H64.6411V93H63.1851V81.848H66.7851C68.0438 81.848 68.9985 82.152 69.6491 82.76C70.3105 83.368 70.6411 84.152 70.6411 85.112ZM66.7851 87.144C67.5958 87.144 68.1931 86.968 68.5771 86.616C68.9611 86.264 69.1531 85.7627 69.1531 85.112C69.1531 83.736 68.3638 83.048 66.7851 83.048H64.6411V87.144H66.7851ZM76.2748 93.144C75.4534 93.144 74.7068 92.9573 74.0348 92.584C73.3734 92.2107 72.8508 91.6827 72.4668 91C72.0934 90.3067 71.9068 89.5067 71.9068 88.6C71.9068 87.704 72.0988 86.9147 72.4828 86.232C72.8774 85.5387 73.4108 85.0107 74.0828 84.648C74.7548 84.2747 75.5068 84.088 76.3388 84.088C77.1708 84.088 77.9228 84.2747 78.5948 84.648C79.2668 85.0107 79.7948 85.5333 80.1788 86.216C80.5734 86.8987 80.7708 87.6933 80.7708 88.6C80.7708 89.5067 80.5681 90.3067 80.1628 91C79.7681 91.6827 79.2294 92.2107 78.5468 92.584C77.8641 92.9573 77.1068 93.144 76.2748 93.144ZM76.2748 91.864C76.7974 91.864 77.2881 91.7413 77.7468 91.496C78.2054 91.2507 78.5734 90.8827 78.8508 90.392C79.1388 89.9013 79.2828 89.304 79.2828 88.6C79.2828 87.896 79.1441 87.2987 78.8668 86.808C78.5894 86.3173 78.2268 85.9547 77.7788 85.72C77.3308 85.4747 76.8454 85.352 76.3228 85.352C75.7894 85.352 75.2988 85.4747 74.8508 85.72C74.4134 85.9547 74.0614 86.3173 73.7948 86.808C73.5281 87.2987 73.3948 87.896 73.3948 88.6C73.3948 89.3147 73.5228 89.9173 73.7788 90.408C74.0454 90.8987 74.3974 91.2667 74.8348 91.512C75.2721 91.7467 75.7521 91.864 76.2748 91.864ZM84.1411 81.16V93H82.6851V81.16H84.1411ZM87.3746 82.808C87.0973 82.808 86.8626 82.712 86.6706 82.52C86.4786 82.328 86.3826 82.0933 86.3826 81.816C86.3826 81.5387 86.4786 81.304 86.6706 81.112C86.8626 80.92 87.0973 80.824 87.3746 80.824C87.6413 80.824 87.8653 80.92 88.0466 81.112C88.2386 81.304 88.3346 81.5387 88.3346 81.816C88.3346 82.0933 88.2386 82.328 88.0466 82.52C87.8653 82.712 87.6413 82.808 87.3746 82.808ZM88.0786 84.232V93H86.6226V84.232H88.0786ZM90.0161 88.6C90.0161 87.6933 90.1975 86.904 90.5601 86.232C90.9228 85.5493 91.4241 85.0213 92.0641 84.648C92.7148 84.2747 93.4561 84.088 94.2881 84.088C95.3655 84.088 96.2508 84.3493 96.9441 84.872C97.6481 85.3947 98.1121 86.12 98.3361 87.048H96.7681C96.6188 86.5147 96.3255 86.0933 95.8881 85.784C95.4615 85.4747 94.9281 85.32 94.2881 85.32C93.4561 85.32 92.7841 85.608 92.2721 86.184C91.7601 86.7493 91.5041 87.5547 91.5041 88.6C91.5041 89.656 91.7601 90.472 92.2721 91.048C92.7841 91.624 93.4561 91.912 94.2881 91.912C94.9281 91.912 95.4615 91.7627 95.8881 91.464C96.3148 91.1653 96.6081 90.7387 96.7681 90.184H98.3361C98.1015 91.08 97.6321 91.8 96.9281 92.344C96.2241 92.8773 95.3441 93.144 94.2881 93.144C93.4561 93.144 92.7148 92.9573 92.0641 92.584C91.4241 92.2107 90.9228 91.6827 90.5601 91C90.1975 90.3173 90.0161 89.5173 90.0161 88.6ZM107.831 84.232L102.551 97.128H101.047L102.775 92.904L99.2389 84.232H100.855L103.607 91.336L106.327 84.232H107.831ZM7.536 121.848V123.032H2.688V126.792H6.624V127.976H2.688V133H1.232V121.848H7.536ZM15.8865 130.52H11.0225L10.1265 133H8.5905L12.6225 121.912H14.3025L18.3185 133H16.7825L15.8865 130.52ZM15.4705 129.336L13.4545 123.704L11.4385 129.336H15.4705ZM29.0198 135.112L26.7958 132.888C26.2518 133.037 25.6971 133.112 25.1318 133.112C24.0971 133.112 23.1531 132.872 22.2998 132.392C21.4464 131.901 20.7691 131.224 20.2678 130.36C19.7771 129.485 19.5318 128.504 19.5318 127.416C19.5318 126.328 19.7771 125.352 20.2678 124.488C20.7691 123.613 21.4464 122.936 22.2998 122.456C23.1531 121.965 24.0971 121.72 25.1318 121.72C26.1771 121.72 27.1264 121.965 27.9798 122.456C28.8331 122.936 29.5051 123.608 29.9958 124.472C30.4864 125.336 30.7318 126.317 30.7318 127.416C30.7318 128.483 30.4971 129.443 30.0278 130.296C29.5584 131.149 28.9131 131.821 28.0918 132.312L30.9078 135.112H29.0198ZM21.0198 127.416C21.0198 128.301 21.1958 129.08 21.5478 129.752C21.9104 130.424 22.4011 130.941 23.0198 131.304C23.6491 131.667 24.3531 131.848 25.1318 131.848C25.9104 131.848 26.6091 131.667 27.2278 131.304C27.8571 130.941 28.3478 130.424 28.6998 129.752C29.0624 129.08 29.2438 128.301 29.2438 127.416C29.2438 126.52 29.0624 125.741 28.6998 125.08C28.3478 124.408 27.8624 123.891 27.2438 123.528C26.6251 123.165 25.9211 122.984 25.1318 122.984C24.3424 122.984 23.6384 123.165 23.0198 123.528C22.4011 123.891 21.9104 124.408 21.5478 125.08C21.1958 125.741 21.0198 126.52 21.0198 127.416Z" fill="#B6C197"/>
</svg>
