<svg width="137" height="178" viewBox="0 0 137 178" fill="none" xmlns="http://www.w3.org/2000/svg">
<path d="M4.768 13.112C4.032 13.112 3.37067 12.984 2.784 12.728C2.208 12.4613 1.75467 12.0987 1.424 11.64C1.09333 11.1707 0.922667 10.632 0.912 10.024H2.464C2.51733 10.5467 2.73067 10.9893 3.104 11.352C3.488 11.704 4.04267 11.88 4.768 11.88C5.46133 11.88 6.00533 11.7093 6.4 11.368C6.80533 11.016 7.008 10.568 7.008 10.024C7.008 9.59733 6.89067 9.25067 6.656 8.984C6.42133 8.71733 6.128 8.51467 5.776 8.376C5.424 8.23733 4.94933 8.088 4.352 7.928C3.616 7.736 3.024 7.544 2.576 7.352C2.13867 7.16 1.76 6.86133 1.44 6.456C1.13067 6.04 0.976 5.48533 0.976 4.792C0.976 4.184 1.13067 3.64533 1.44 3.176C1.74933 2.70667 2.18133 2.344 2.736 2.088C3.30133 1.832 3.94667 1.704 4.672 1.704C5.71733 1.704 6.57067 1.96533 7.232 2.488C7.904 3.01067 8.28267 3.704 8.368 4.568H6.768C6.71467 4.14133 6.49067 3.768 6.096 3.448C5.70133 3.11733 5.17867 2.952 4.528 2.952C3.92 2.952 3.424 3.112 3.04 3.432C2.656 3.74133 2.464 4.17867 2.464 4.744C2.464 5.14933 2.576 5.48 2.8 5.736C3.03467 5.992 3.31733 6.18933 3.648 6.328C3.98933 6.456 4.464 6.60533 5.072 6.776C5.808 6.97867 6.4 7.18133 6.848 7.384C7.296 7.576 7.68 7.88 8 8.296C8.32 8.70133 8.48 9.256 8.48 9.96C8.48 10.504 8.336 11.016 8.048 11.496C7.76 11.976 7.33333 12.3653 6.768 12.664C6.20267 12.9627 5.536 13.112 4.768 13.112ZM12.3986 5.432V10.6C12.3986 11.0267 12.4893 11.3307 12.6706 11.512C12.852 11.6827 13.1666 11.768 13.6146 11.768H14.6866V13H13.3746C12.564 13 11.956 12.8133 11.5506 12.44C11.1453 12.0667 10.9426 11.4533 10.9426 10.6V5.432H9.80663V4.232H10.9426V2.024H12.3986V4.232H14.6866V5.432H12.3986ZM17.9068 5.656C18.1628 5.15467 18.5254 4.76533 18.9948 4.488C19.4748 4.21067 20.0561 4.072 20.7388 4.072V5.576H20.3548C18.7228 5.576 17.9068 6.46133 17.9068 8.232V13H16.4508V4.232H17.9068V5.656ZM21.8755 8.584C21.8755 7.688 22.0568 6.904 22.4195 6.232C22.7822 5.54933 23.2782 5.02133 23.9075 4.648C24.5475 4.27467 25.2568 4.088 26.0355 4.088C26.8035 4.088 27.4702 4.25333 28.0355 4.584C28.6008 4.91467 29.0222 5.33067 29.2995 5.832V4.232H30.7715V13H29.2995V11.368C29.0115 11.88 28.5795 12.3067 28.0035 12.648C27.4382 12.9787 26.7768 13.144 26.0195 13.144C25.2408 13.144 24.5368 12.952 23.9075 12.568C23.2782 12.184 22.7822 11.6453 22.4195 10.952C22.0568 10.2587 21.8755 9.46933 21.8755 8.584ZM29.2995 8.6C29.2995 7.93867 29.1662 7.36267 28.8995 6.872C28.6328 6.38133 28.2702 6.008 27.8115 5.752C27.3635 5.48533 26.8675 5.352 26.3235 5.352C25.7795 5.352 25.2835 5.48 24.8355 5.736C24.3875 5.992 24.0302 6.36533 23.7635 6.856C23.4968 7.34667 23.3635 7.92267 23.3635 8.584C23.3635 9.256 23.4968 9.84267 23.7635 10.344C24.0302 10.8347 24.3875 11.2133 24.8355 11.48C25.2835 11.736 25.7795 11.864 26.3235 11.864C26.8675 11.864 27.3635 11.736 27.8115 11.48C28.2702 11.2133 28.6328 10.8347 28.8995 10.344C29.1662 9.84267 29.2995 9.26133 29.2995 8.6ZM35.008 5.432V10.6C35.008 11.0267 35.0987 11.3307 35.28 11.512C35.4613 11.6827 35.776 11.768 36.224 11.768H37.296V13H35.984C35.1733 13 34.5653 12.8133 34.16 12.44C33.7547 12.0667 33.552 11.4533 33.552 10.6V5.432H32.416V4.232H33.552V2.024H35.008V4.232H37.296V5.432H35.008ZM47.0601 8.28C47.0601 8.55733 47.0441 8.85067 47.0121 9.16H40.0041C40.0575 10.024 40.3508 10.7013 40.8841 11.192C41.4281 11.672 42.0841 11.912 42.8521 11.912C43.4815 11.912 44.0041 11.768 44.4201 11.48C44.8468 11.1813 45.1455 10.7867 45.3161 10.296H46.8841C46.6495 11.1387 46.1801 11.8267 45.4761 12.36C44.7721 12.8827 43.8975 13.144 42.8521 13.144C42.0201 13.144 41.2735 12.9573 40.6121 12.584C39.9615 12.2107 39.4495 11.6827 39.0761 11C38.7028 10.3067 38.5161 9.50667 38.5161 8.6C38.5161 7.69333 38.6975 6.89867 39.0601 6.216C39.4228 5.53333 39.9295 5.01067 40.5801 4.648C41.2415 4.27467 41.9988 4.088 42.8521 4.088C43.6841 4.088 44.4201 4.26933 45.0601 4.632C45.7001 4.99467 46.1908 5.496 46.5321 6.136C46.8841 6.76533 47.0601 7.48 47.0601 8.28ZM45.5561 7.976C45.5561 7.42133 45.4335 6.94667 45.1881 6.552C44.9428 6.14667 44.6068 5.84267 44.1801 5.64C43.7641 5.42667 43.3001 5.32 42.7881 5.32C42.0521 5.32 41.4228 5.55467 40.9001 6.024C40.3881 6.49333 40.0948 7.144 40.0201 7.976H45.5561ZM52.598 4.088C53.3553 4.088 54.0167 4.25333 54.582 4.584C55.158 4.91467 55.5847 5.33067 55.862 5.832V4.232H57.334V13.192C57.334 13.992 57.1633 14.7013 56.822 15.32C56.4807 15.9493 55.99 16.44 55.35 16.792C54.7207 17.144 53.9847 17.32 53.142 17.32C51.99 17.32 51.03 17.048 50.262 16.504C49.494 15.96 49.0407 15.2187 48.902 14.28H50.342C50.502 14.8133 50.8327 15.24 51.334 15.56C51.8353 15.8907 52.438 16.056 53.142 16.056C53.942 16.056 54.5927 15.8053 55.094 15.304C55.606 14.8027 55.862 14.0987 55.862 13.192V11.352C55.574 11.864 55.1473 12.2907 54.582 12.632C54.0167 12.9733 53.3553 13.144 52.598 13.144C51.8193 13.144 51.11 12.952 50.47 12.568C49.8407 12.184 49.3447 11.6453 48.982 10.952C48.6193 10.2587 48.438 9.46933 48.438 8.584C48.438 7.688 48.6193 6.904 48.982 6.232C49.3447 5.54933 49.8407 5.02133 50.47 4.648C51.11 4.27467 51.8193 4.088 52.598 4.088ZM55.862 8.6C55.862 7.93867 55.7287 7.36267 55.462 6.872C55.1953 6.38133 54.8327 6.008 54.374 5.752C53.926 5.48533 53.43 5.352 52.886 5.352C52.342 5.352 51.846 5.48 51.398 5.736C50.95 5.992 50.5927 6.36533 50.326 6.856C50.0593 7.34667 49.926 7.92267 49.926 8.584C49.926 9.256 50.0593 9.84267 50.326 10.344C50.5927 10.8347 50.95 11.2133 51.398 11.48C51.846 11.736 52.342 11.864 52.886 11.864C53.43 11.864 53.926 11.736 54.374 11.48C54.8327 11.2133 55.1953 10.8347 55.462 10.344C55.7287 9.84267 55.862 9.26133 55.862 8.6ZM67.3465 4.232L62.0665 17.128H60.5625L62.2905 12.904L58.7545 4.232H60.3705L63.1225 11.336L65.8425 4.232H67.3465ZM76.5477 1.848C77.7638 1.848 78.8144 2.07733 79.6998 2.536C80.5958 2.984 81.2784 3.62933 81.7478 4.472C82.2278 5.31467 82.4678 6.30667 82.4678 7.448C82.4678 8.58933 82.2278 9.58133 81.7478 10.424C81.2784 11.256 80.5958 11.896 79.6998 12.344C78.8144 12.7813 77.7638 13 76.5477 13H73.0758V1.848H76.5477ZM76.5477 11.8C77.9878 11.8 79.0864 11.4213 79.8438 10.664C80.6011 9.896 80.9798 8.824 80.9798 7.448C80.9798 6.06133 80.5958 4.97867 79.8278 4.2C79.0704 3.42133 77.9771 3.032 76.5477 3.032H74.5318V11.8H76.5477ZM92.3883 8.28C92.3883 8.55733 92.3723 8.85067 92.3403 9.16H85.3323C85.3856 10.024 85.6789 10.7013 86.2123 11.192C86.7563 11.672 87.4123 11.912 88.1803 11.912C88.8096 11.912 89.3323 11.768 89.7483 11.48C90.1749 11.1813 90.4736 10.7867 90.6443 10.296H92.2123C91.9776 11.1387 91.5083 11.8267 90.8043 12.36C90.1003 12.8827 89.2256 13.144 88.1803 13.144C87.3483 13.144 86.6016 12.9573 85.9403 12.584C85.2896 12.2107 84.7776 11.6827 84.4043 11C84.0309 10.3067 83.8443 9.50667 83.8443 8.6C83.8443 7.69333 84.0256 6.89867 84.3883 6.216C84.7509 5.53333 85.2576 5.01067 85.9083 4.648C86.5696 4.27467 87.3269 4.088 88.1803 4.088C89.0123 4.088 89.7483 4.26933 90.3883 4.632C91.0283 4.99467 91.5189 5.496 91.8603 6.136C92.2123 6.76533 92.3883 7.48 92.3883 8.28ZM90.8843 7.976C90.8843 7.42133 90.7616 6.94667 90.5163 6.552C90.2709 6.14667 89.9349 5.84267 89.5083 5.64C89.0923 5.42667 88.6283 5.32 88.1163 5.32C87.3803 5.32 86.7509 5.55467 86.2283 6.024C85.7163 6.49333 85.4229 7.144 85.3483 7.976H90.8843ZM97.4141 13.144C96.7421 13.144 96.1395 13.032 95.6061 12.808C95.0728 12.5733 94.6515 12.2533 94.3421 11.848C94.0328 11.432 93.8621 10.9573 93.8301 10.424H95.3341C95.3768 10.8613 95.5795 11.2187 95.9421 11.496C96.3155 11.7733 96.8008 11.912 97.3981 11.912C97.9528 11.912 98.3901 11.7893 98.7101 11.544C99.0301 11.2987 99.1901 10.9893 99.1901 10.616C99.1901 10.232 99.0195 9.94933 98.6781 9.768C98.3368 9.576 97.8088 9.38933 97.0941 9.208C96.4435 9.03733 95.9101 8.86667 95.4941 8.696C95.0888 8.51467 94.7368 8.25333 94.4381 7.912C94.1501 7.56 94.0061 7.10133 94.0061 6.536C94.0061 6.088 94.1395 5.67733 94.4061 5.304C94.6728 4.93067 95.0515 4.63733 95.5421 4.424C96.0328 4.2 96.5928 4.088 97.2221 4.088C98.1928 4.088 98.9768 4.33333 99.5741 4.824C100.171 5.31467 100.491 5.98667 100.534 6.84H99.0781C99.0461 6.38133 98.8595 6.01333 98.5181 5.736C98.1875 5.45867 97.7395 5.32 97.1741 5.32C96.6515 5.32 96.2355 5.432 95.9261 5.656C95.6168 5.88 95.4621 6.17333 95.4621 6.536C95.4621 6.824 95.5528 7.064 95.7341 7.256C95.9261 7.43733 96.1608 7.58667 96.4381 7.704C96.7261 7.81067 97.1208 7.93333 97.6221 8.072C98.2515 8.24267 98.7635 8.41333 99.1581 8.584C99.5528 8.744 99.8888 8.98933 100.166 9.32C100.454 9.65067 100.603 10.0827 100.614 10.616C100.614 11.096 100.481 11.528 100.214 11.912C99.9475 12.296 99.5688 12.6 99.0781 12.824C98.5981 13.0373 98.0435 13.144 97.4141 13.144ZM103.422 2.808C103.144 2.808 102.91 2.712 102.718 2.52C102.526 2.328 102.43 2.09333 102.43 1.816C102.43 1.53867 102.526 1.304 102.718 1.112C102.91 0.919999 103.144 0.823999 103.422 0.823999C103.688 0.823999 103.912 0.919999 104.094 1.112C104.286 1.304 104.382 1.53867 104.382 1.816C104.382 2.09333 104.286 2.328 104.094 2.52C103.912 2.712 103.688 2.808 103.422 2.808ZM104.126 4.232V13H102.67V4.232H104.126ZM110.223 4.088C110.98 4.088 111.642 4.25333 112.207 4.584C112.783 4.91467 113.21 5.33067 113.487 5.832V4.232H114.959V13.192C114.959 13.992 114.788 14.7013 114.447 15.32C114.106 15.9493 113.615 16.44 112.975 16.792C112.346 17.144 111.61 17.32 110.767 17.32C109.615 17.32 108.655 17.048 107.887 16.504C107.119 15.96 106.666 15.2187 106.527 14.28H107.967C108.127 14.8133 108.458 15.24 108.959 15.56C109.46 15.8907 110.063 16.056 110.767 16.056C111.567 16.056 112.218 15.8053 112.719 15.304C113.231 14.8027 113.487 14.0987 113.487 13.192V11.352C113.199 11.864 112.772 12.2907 112.207 12.632C111.642 12.9733 110.98 13.144 110.223 13.144C109.444 13.144 108.735 12.952 108.095 12.568C107.466 12.184 106.97 11.6453 106.607 10.952C106.244 10.2587 106.063 9.46933 106.063 8.584C106.063 7.688 106.244 6.904 106.607 6.232C106.97 5.54933 107.466 5.02133 108.095 4.648C108.735 4.27467 109.444 4.088 110.223 4.088ZM113.487 8.6C113.487 7.93867 113.354 7.36267 113.087 6.872C112.82 6.38133 112.458 6.008 111.999 5.752C111.551 5.48533 111.055 5.352 110.511 5.352C109.967 5.352 109.471 5.48 109.023 5.736C108.575 5.992 108.218 6.36533 107.951 6.856C107.684 7.34667 107.551 7.92267 107.551 8.584C107.551 9.256 107.684 9.84267 107.951 10.344C108.218 10.8347 108.575 11.2133 109.023 11.48C109.471 11.736 109.967 11.864 110.511 11.864C111.055 11.864 111.551 11.736 111.999 11.48C112.458 11.2133 112.82 10.8347 113.087 10.344C113.354 9.84267 113.487 9.26133 113.487 8.6ZM121.692 4.072C122.758 4.072 123.622 4.39733 124.284 5.048C124.945 5.688 125.276 6.616 125.276 7.832V13H123.836V8.04C123.836 7.16533 123.617 6.49867 123.18 6.04C122.742 5.57067 122.145 5.336 121.388 5.336C120.62 5.336 120.006 5.576 119.548 6.056C119.1 6.536 118.876 7.23467 118.876 8.152V13H117.42V4.232H118.876V5.48C119.164 5.032 119.553 4.68533 120.044 4.44C120.545 4.19467 121.094 4.072 121.692 4.072ZM8.688 45.112C8.688 46.04 8.368 46.8133 7.728 47.432C7.09867 48.04 6.13333 48.344 4.832 48.344H2.688V53H1.232V41.848H4.832C6.09067 41.848 7.04533 42.152 7.696 42.76C8.35733 43.368 8.688 44.152 8.688 45.112ZM4.832 47.144C5.64267 47.144 6.24 46.968 6.624 46.616C7.008 46.264 7.2 45.7627 7.2 45.112C7.2 43.736 6.41067 43.048 4.832 43.048H2.688V47.144H4.832ZM11.9536 45.656C12.2096 45.1547 12.5723 44.7653 13.0416 44.488C13.5216 44.2107 14.103 44.072 14.7856 44.072V45.576H14.4016C12.7696 45.576 11.9536 46.4613 11.9536 48.232V53H10.4976V44.232H11.9536V45.656ZM20.2904 53.144C19.469 53.144 18.7224 52.9573 18.0504 52.584C17.389 52.2107 16.8664 51.6827 16.4824 51C16.109 50.3067 15.9224 49.5067 15.9224 48.6C15.9224 47.704 16.1144 46.9147 16.4984 46.232C16.893 45.5387 17.4264 45.0107 18.0984 44.648C18.7704 44.2747 19.5224 44.088 20.3544 44.088C21.1864 44.088 21.9384 44.2747 22.6104 44.648C23.2824 45.0107 23.8104 45.5333 24.1944 46.216C24.589 46.8987 24.7864 47.6933 24.7864 48.6C24.7864 49.5067 24.5837 50.3067 24.1784 51C23.7837 51.6827 23.245 52.2107 22.5624 52.584C21.8797 52.9573 21.1224 53.144 20.2904 53.144ZM20.2904 51.864C20.813 51.864 21.3037 51.7413 21.7624 51.496C22.221 51.2507 22.589 50.8827 22.8664 50.392C23.1544 49.9013 23.2984 49.304 23.2984 48.6C23.2984 47.896 23.1597 47.2987 22.8824 46.808C22.605 46.3173 22.2424 45.9547 21.7944 45.72C21.3464 45.4747 20.861 45.352 20.3384 45.352C19.805 45.352 19.3144 45.4747 18.8664 45.72C18.429 45.9547 18.077 46.3173 17.8104 46.808C17.5437 47.2987 17.4104 47.896 17.4104 48.6C17.4104 49.3147 17.5384 49.9173 17.7944 50.408C18.061 50.8987 18.413 51.2667 18.8504 51.512C19.2877 51.7467 19.7677 51.864 20.2904 51.864ZM26.1568 48.584C26.1568 47.688 26.3381 46.904 26.7008 46.232C27.0634 45.5493 27.5594 45.0213 28.1888 44.648C28.8288 44.2747 29.5434 44.088 30.3328 44.088C31.0154 44.088 31.6501 44.248 32.2368 44.568C32.8234 44.8773 33.2714 45.288 33.5808 45.8V41.16H35.0528V53H33.5808V51.352C33.2928 51.8747 32.8661 52.3067 32.3008 52.648C31.7354 52.9787 31.0741 53.144 30.3168 53.144C29.5381 53.144 28.8288 52.952 28.1888 52.568C27.5594 52.184 27.0634 51.6453 26.7008 50.952C26.3381 50.2587 26.1568 49.4693 26.1568 48.584ZM33.5808 48.6C33.5808 47.9387 33.4474 47.3627 33.1808 46.872C32.9141 46.3813 32.5514 46.008 32.0928 45.752C31.6448 45.4853 31.1488 45.352 30.6048 45.352C30.0608 45.352 29.5648 45.48 29.1168 45.736C28.6688 45.992 28.3114 46.3653 28.0448 46.856C27.7781 47.3467 27.6448 47.9227 27.6448 48.584C27.6448 49.256 27.7781 49.8427 28.0448 50.344C28.3114 50.8347 28.6688 51.2133 29.1168 51.48C29.5648 51.736 30.0608 51.864 30.6048 51.864C31.1488 51.864 31.6448 51.736 32.0928 51.48C32.5514 51.2133 32.9141 50.8347 33.1808 50.344C33.4474 49.8427 33.5808 49.2613 33.5808 48.6ZM45.2893 44.232V53H43.8333V51.704C43.5559 52.152 43.1666 52.504 42.6653 52.76C42.1746 53.0053 41.6306 53.128 41.0333 53.128C40.3506 53.128 39.7373 52.9893 39.1933 52.712C38.6493 52.424 38.2173 51.9973 37.8973 51.432C37.5879 50.8667 37.4333 50.1787 37.4333 49.368V44.232H38.8733V49.176C38.8733 50.04 39.0919 50.7067 39.5293 51.176C39.9666 51.6347 40.5639 51.864 41.3213 51.864C42.0999 51.864 42.7133 51.624 43.1613 51.144C43.6093 50.664 43.8333 49.9653 43.8333 49.048V44.232H45.2893ZM47.2036 48.6C47.2036 47.6933 47.385 46.904 47.7476 46.232C48.1103 45.5493 48.6116 45.0213 49.2516 44.648C49.9023 44.2747 50.6436 44.088 51.4756 44.088C52.553 44.088 53.4383 44.3493 54.1316 44.872C54.8356 45.3947 55.2996 46.12 55.5236 47.048H53.9556C53.8063 46.5147 53.513 46.0933 53.0756 45.784C52.649 45.4747 52.1156 45.32 51.4756 45.32C50.6436 45.32 49.9716 45.608 49.4596 46.184C48.9476 46.7493 48.6916 47.5547 48.6916 48.6C48.6916 49.656 48.9476 50.472 49.4596 51.048C49.9716 51.624 50.6436 51.912 51.4756 51.912C52.1156 51.912 52.649 51.7627 53.0756 51.464C53.5023 51.1653 53.7956 50.7387 53.9556 50.184H55.5236C55.289 51.08 54.8196 51.8 54.1156 52.344C53.4116 52.8773 52.5316 53.144 51.4756 53.144C50.6436 53.144 49.9023 52.9573 49.2516 52.584C48.6116 52.2107 48.1103 51.6827 47.7476 51C47.385 50.3173 47.2036 49.5173 47.2036 48.6ZM59.2424 45.432V50.6C59.2424 51.0267 59.333 51.3307 59.5144 51.512C59.6957 51.6827 60.0104 51.768 60.4584 51.768H61.5304V53H60.2184C59.4077 53 58.7997 52.8133 58.3944 52.44C57.989 52.0667 57.7864 51.4533 57.7864 50.6V45.432H56.6504V44.232H57.7864V42.024H59.2424V44.232H61.5304V45.432H59.2424ZM71.0321 41.848C72.2481 41.848 73.2988 42.0773 74.1841 42.536C75.0801 42.984 75.7628 43.6293 76.2321 44.472C76.7121 45.3147 76.9521 46.3067 76.9521 47.448C76.9521 48.5893 76.7121 49.5813 76.2321 50.424C75.7628 51.256 75.0801 51.896 74.1841 52.344C73.2988 52.7813 72.2481 53 71.0321 53H67.5601V41.848H71.0321ZM71.0321 51.8C72.4721 51.8 73.5708 51.4213 74.3281 50.664C75.0855 49.896 75.4641 48.824 75.4641 47.448C75.4641 46.0613 75.0801 44.9787 74.3121 44.2C73.5548 43.4213 72.4615 43.032 71.0321 43.032H69.0161V51.8H71.0321ZM86.8726 48.28C86.8726 48.5573 86.8566 48.8507 86.8246 49.16H79.8166C79.87 50.024 80.1633 50.7013 80.6966 51.192C81.2406 51.672 81.8966 51.912 82.6646 51.912C83.294 51.912 83.8166 51.768 84.2326 51.48C84.6593 51.1813 84.958 50.7867 85.1286 50.296H86.6966C86.462 51.1387 85.9926 51.8267 85.2886 52.36C84.5846 52.8827 83.71 53.144 82.6646 53.144C81.8326 53.144 81.086 52.9573 80.4246 52.584C79.774 52.2107 79.262 51.6827 78.8886 51C78.5153 50.3067 78.3286 49.5067 78.3286 48.6C78.3286 47.6933 78.51 46.8987 78.8726 46.216C79.2353 45.5333 79.742 45.0107 80.3926 44.648C81.054 44.2747 81.8113 44.088 82.6646 44.088C83.4966 44.088 84.2326 44.2693 84.8726 44.632C85.5126 44.9947 86.0033 45.496 86.3446 46.136C86.6966 46.7653 86.8726 47.48 86.8726 48.28ZM85.3686 47.976C85.3686 47.4213 85.246 46.9467 85.0006 46.552C84.7553 46.1467 84.4193 45.8427 83.9926 45.64C83.5766 45.4267 83.1126 45.32 82.6006 45.32C81.8646 45.32 81.2353 45.5547 80.7126 46.024C80.2006 46.4933 79.9073 47.144 79.8326 47.976H85.3686ZM91.8985 53.144C91.2265 53.144 90.6238 53.032 90.0905 52.808C89.5572 52.5733 89.1358 52.2533 88.8265 51.848C88.5172 51.432 88.3465 50.9573 88.3145 50.424H89.8185C89.8612 50.8613 90.0638 51.2187 90.4265 51.496C90.7998 51.7733 91.2852 51.912 91.8825 51.912C92.4372 51.912 92.8745 51.7893 93.1945 51.544C93.5145 51.2987 93.6745 50.9893 93.6745 50.616C93.6745 50.232 93.5038 49.9493 93.1625 49.768C92.8212 49.576 92.2932 49.3893 91.5785 49.208C90.9278 49.0373 90.3945 48.8667 89.9785 48.696C89.5732 48.5147 89.2212 48.2533 88.9225 47.912C88.6345 47.56 88.4905 47.1013 88.4905 46.536C88.4905 46.088 88.6238 45.6773 88.8905 45.304C89.1572 44.9307 89.5358 44.6373 90.0265 44.424C90.5172 44.2 91.0772 44.088 91.7065 44.088C92.6772 44.088 93.4612 44.3333 94.0585 44.824C94.6558 45.3147 94.9758 45.9867 95.0185 46.84H93.5625C93.5305 46.3813 93.3438 46.0133 93.0025 45.736C92.6718 45.4587 92.2238 45.32 91.6585 45.32C91.1358 45.32 90.7198 45.432 90.4105 45.656C90.1012 45.88 89.9465 46.1733 89.9465 46.536C89.9465 46.824 90.0372 47.064 90.2185 47.256C90.4105 47.4373 90.6452 47.5867 90.9225 47.704C91.2105 47.8107 91.6052 47.9333 92.1065 48.072C92.7358 48.2427 93.2478 48.4133 93.6425 48.584C94.0372 48.744 94.3732 48.9893 94.6505 49.32C94.9385 49.6507 95.0878 50.0827 95.0985 50.616C95.0985 51.096 94.9652 51.528 94.6985 51.912C94.4318 52.296 94.0532 52.6 93.5625 52.824C93.0825 53.0373 92.5278 53.144 91.8985 53.144ZM97.9059 42.808C97.6285 42.808 97.3939 42.712 97.2019 42.52C97.0099 42.328 96.9139 42.0933 96.9139 41.816C96.9139 41.5387 97.0099 41.304 97.2019 41.112C97.3939 40.92 97.6285 40.824 97.9059 40.824C98.1725 40.824 98.3965 40.92 98.5779 41.112C98.7699 41.304 98.8659 41.5387 98.8659 41.816C98.8659 42.0933 98.7699 42.328 98.5779 42.52C98.3965 42.712 98.1725 42.808 97.9059 42.808ZM98.6099 44.232V53H97.1539V44.232H98.6099ZM104.707 44.088C105.465 44.088 106.126 44.2533 106.691 44.584C107.267 44.9147 107.694 45.3307 107.971 45.832V44.232H109.443V53.192C109.443 53.992 109.273 54.7013 108.931 55.32C108.59 55.9493 108.099 56.44 107.459 56.792C106.83 57.144 106.094 57.32 105.251 57.32C104.099 57.32 103.139 57.048 102.371 56.504C101.603 55.96 101.15 55.2187 101.011 54.28H102.451C102.611 54.8133 102.942 55.24 103.443 55.56C103.945 55.8907 104.547 56.056 105.251 56.056C106.051 56.056 106.702 55.8053 107.203 55.304C107.715 54.8027 107.971 54.0987 107.971 53.192V51.352C107.683 51.864 107.257 52.2907 106.691 52.632C106.126 52.9733 105.465 53.144 104.707 53.144C103.929 53.144 103.219 52.952 102.579 52.568C101.95 52.184 101.454 51.6453 101.091 50.952C100.729 50.2587 100.547 49.4693 100.547 48.584C100.547 47.688 100.729 46.904 101.091 46.232C101.454 45.5493 101.95 45.0213 102.579 44.648C103.219 44.2747 103.929 44.088 104.707 44.088ZM107.971 48.6C107.971 47.9387 107.838 47.3627 107.571 46.872C107.305 46.3813 106.942 46.008 106.483 45.752C106.035 45.4853 105.539 45.352 104.995 45.352C104.451 45.352 103.955 45.48 103.507 45.736C103.059 45.992 102.702 46.3653 102.435 46.856C102.169 47.3467 102.035 47.9227 102.035 48.584C102.035 49.256 102.169 49.8427 102.435 50.344C102.702 50.8347 103.059 51.2133 103.507 51.48C103.955 51.736 104.451 51.864 104.995 51.864C105.539 51.864 106.035 51.736 106.483 51.48C106.942 51.2133 107.305 50.8347 107.571 50.344C107.838 49.8427 107.971 49.2613 107.971 48.6ZM116.176 44.072C117.243 44.072 118.107 44.3973 118.768 45.048C119.429 45.688 119.76 46.616 119.76 47.832V53H118.32V48.04C118.32 47.1653 118.101 46.4987 117.664 46.04C117.227 45.5707 116.629 45.336 115.872 45.336C115.104 45.336 114.491 45.576 114.032 46.056C113.584 46.536 113.36 47.2347 113.36 48.152V53H111.904V44.232H113.36V45.48C113.648 45.032 114.037 44.6853 114.528 44.44C115.029 44.1947 115.579 44.072 116.176 44.072ZM0.688 87.416C0.688 86.328 0.933333 85.352 1.424 84.488C1.91467 83.6133 2.58133 82.9307 3.424 82.44C4.27733 81.9493 5.22133 81.704 6.256 81.704C7.472 81.704 8.53333 81.9973 9.44 82.584C10.3467 83.1707 11.008 84.0027 11.424 85.08H9.68C9.37067 84.408 8.92267 83.8907 8.336 83.528C7.76 83.1653 7.06667 82.984 6.256 82.984C5.47733 82.984 4.77867 83.1653 4.16 83.528C3.54133 83.8907 3.056 84.408 2.704 85.08C2.352 85.7413 2.176 86.52 2.176 87.416C2.176 88.3013 2.352 89.08 2.704 89.752C3.056 90.4133 3.54133 90.9253 4.16 91.288C4.77867 91.6507 5.47733 91.832 6.256 91.832C7.06667 91.832 7.76 91.656 8.336 91.304C8.92267 90.9413 9.37067 90.424 9.68 89.752H11.424C11.008 90.8187 10.3467 91.6453 9.44 92.232C8.53333 92.808 7.472 93.096 6.256 93.096C5.22133 93.096 4.27733 92.856 3.424 92.376C2.58133 91.8853 1.91467 91.208 1.424 90.344C0.933333 89.48 0.688 88.504 0.688 87.416ZM17.4154 93.144C16.594 93.144 15.8474 92.9573 15.1754 92.584C14.514 92.2107 13.9914 91.6827 13.6074 91C13.234 90.3067 13.0474 89.5067 13.0474 88.6C13.0474 87.704 13.2394 86.9147 13.6234 86.232C14.018 85.5387 14.5514 85.0107 15.2234 84.648C15.8954 84.2747 16.6474 84.088 17.4794 84.088C18.3114 84.088 19.0634 84.2747 19.7354 84.648C20.4074 85.0107 20.9354 85.5333 21.3194 86.216C21.714 86.8987 21.9114 87.6933 21.9114 88.6C21.9114 89.5067 21.7087 90.3067 21.3034 91C20.9087 91.6827 20.37 92.2107 19.6874 92.584C19.0047 92.9573 18.2474 93.144 17.4154 93.144ZM17.4154 91.864C17.938 91.864 18.4287 91.7413 18.8874 91.496C19.346 91.2507 19.714 90.8827 19.9914 90.392C20.2794 89.9013 20.4234 89.304 20.4234 88.6C20.4234 87.896 20.2847 87.2987 20.0074 86.808C19.73 86.3173 19.3674 85.9547 18.9194 85.72C18.4714 85.4747 17.986 85.352 17.4634 85.352C16.93 85.352 16.4394 85.4747 15.9914 85.72C15.554 85.9547 15.202 86.3173 14.9354 86.808C14.6687 87.2987 14.5354 87.896 14.5354 88.6C14.5354 89.3147 14.6634 89.9173 14.9194 90.408C15.186 90.8987 15.538 91.2667 15.9754 91.512C16.4127 91.7467 16.8927 91.864 17.4154 91.864ZM28.0978 84.072C29.1644 84.072 30.0284 84.3973 30.6898 85.048C31.3511 85.688 31.6818 86.616 31.6818 87.832V93H30.2418V88.04C30.2418 87.1653 30.0231 86.4987 29.5858 86.04C29.1484 85.5707 28.5511 85.336 27.7938 85.336C27.0258 85.336 26.4124 85.576 25.9538 86.056C25.5058 86.536 25.2818 87.2347 25.2818 88.152V93H23.8258V84.232H25.2818V85.48C25.5698 85.032 25.9591 84.6853 26.4498 84.44C26.9511 84.1947 27.5004 84.072 28.0978 84.072ZM35.8361 85.432V90.6C35.8361 91.0267 35.9268 91.3307 36.1081 91.512C36.2895 91.6827 36.6041 91.768 37.0521 91.768H38.1241V93H36.8121C36.0015 93 35.3935 92.8133 34.9881 92.44C34.5828 92.0667 34.3801 91.4533 34.3801 90.6V85.432H33.2441V84.232H34.3801V82.024H35.8361V84.232H38.1241V85.432H35.8361ZM47.8883 88.28C47.8883 88.5573 47.8723 88.8507 47.8403 89.16H40.8323C40.8856 90.024 41.1789 90.7013 41.7123 91.192C42.2563 91.672 42.9123 91.912 43.6803 91.912C44.3096 91.912 44.8323 91.768 45.2483 91.48C45.6749 91.1813 45.9736 90.7867 46.1443 90.296H47.7123C47.4776 91.1387 47.0083 91.8267 46.3043 92.36C45.6003 92.8827 44.7256 93.144 43.6803 93.144C42.8483 93.144 42.1016 92.9573 41.4403 92.584C40.7896 92.2107 40.2776 91.6827 39.9043 91C39.5309 90.3067 39.3443 89.5067 39.3443 88.6C39.3443 87.6933 39.5256 86.8987 39.8883 86.216C40.2509 85.5333 40.7576 85.0107 41.4083 84.648C42.0696 84.2747 42.8269 84.088 43.6803 84.088C44.5123 84.088 45.2483 84.2693 45.8883 84.632C46.5283 84.9947 47.0189 85.496 47.3603 86.136C47.7123 86.7653 47.8883 87.48 47.8883 88.28ZM46.3843 87.976C46.3843 87.4213 46.2616 86.9467 46.0163 86.552C45.7709 86.1467 45.4349 85.8427 45.0083 85.64C44.5923 85.4267 44.1283 85.32 43.6163 85.32C42.8803 85.32 42.2509 85.5547 41.7283 86.024C41.2163 86.4933 40.9229 87.144 40.8483 87.976H46.3843ZM54.0821 84.072C55.1488 84.072 56.0128 84.3973 56.6741 85.048C57.3355 85.688 57.6661 86.616 57.6661 87.832V93H56.2261V88.04C56.2261 87.1653 56.0075 86.4987 55.5701 86.04C55.1328 85.5707 54.5355 85.336 53.7781 85.336C53.0101 85.336 52.3968 85.576 51.9381 86.056C51.4901 86.536 51.2661 87.2347 51.2661 88.152V93H49.8101V84.232H51.2661V85.48C51.5541 85.032 51.9435 84.6853 52.4341 84.44C52.9355 84.1947 53.4848 84.072 54.0821 84.072ZM61.8205 85.432V90.6C61.8205 91.0267 61.9112 91.3307 62.0925 91.512C62.2738 91.6827 62.5885 91.768 63.0365 91.768H64.1085V93H62.7965C61.9858 93 61.3778 92.8133 60.9725 92.44C60.5672 92.0667 60.3645 91.4533 60.3645 90.6V85.432H59.2285V84.232H60.3645V82.024H61.8205V84.232H64.1085V85.432H61.8205ZM73.6743 93.112C72.9383 93.112 72.2769 92.984 71.6903 92.728C71.1143 92.4613 70.6609 92.0987 70.3303 91.64C69.9996 91.1707 69.8289 90.632 69.8183 90.024H71.3703C71.4236 90.5467 71.6369 90.9893 72.0103 91.352C72.3943 91.704 72.9489 91.88 73.6743 91.88C74.3676 91.88 74.9116 91.7093 75.3063 91.368C75.7116 91.016 75.9143 90.568 75.9143 90.024C75.9143 89.5973 75.7969 89.2507 75.5623 88.984C75.3276 88.7173 75.0343 88.5147 74.6823 88.376C74.3303 88.2373 73.8556 88.088 73.2583 87.928C72.5223 87.736 71.9303 87.544 71.4823 87.352C71.0449 87.16 70.6663 86.8613 70.3463 86.456C70.0369 86.04 69.8823 85.4853 69.8823 84.792C69.8823 84.184 70.0369 83.6453 70.3463 83.176C70.6556 82.7067 71.0876 82.344 71.6423 82.088C72.2076 81.832 72.8529 81.704 73.5783 81.704C74.6236 81.704 75.4769 81.9653 76.1383 82.488C76.8103 83.0107 77.1889 83.704 77.2743 84.568H75.6743C75.6209 84.1413 75.3969 83.768 75.0023 83.448C74.6076 83.1173 74.0849 82.952 73.4343 82.952C72.8263 82.952 72.3303 83.112 71.9463 83.432C71.5623 83.7413 71.3703 84.1787 71.3703 84.744C71.3703 85.1493 71.4823 85.48 71.7063 85.736C71.9409 85.992 72.2236 86.1893 72.5543 86.328C72.8956 86.456 73.3703 86.6053 73.9783 86.776C74.7143 86.9787 75.3063 87.1813 75.7543 87.384C76.2023 87.576 76.5863 87.88 76.9062 88.296C77.2263 88.7013 77.3863 89.256 77.3863 89.96C77.3863 90.504 77.2423 91.016 76.9543 91.496C76.6663 91.976 76.2396 92.3653 75.6743 92.664C75.1089 92.9627 74.4423 93.112 73.6743 93.112ZM81.3049 85.432V90.6C81.3049 91.0267 81.3955 91.3307 81.5769 91.512C81.7582 91.6827 82.0729 91.768 82.5209 91.768H83.5929V93H82.2809C81.4702 93 80.8622 92.8133 80.4569 92.44C80.0515 92.0667 79.8489 91.4533 79.8489 90.6V85.432H78.7129V84.232H79.8489V82.024H81.3049V84.232H83.5929V85.432H81.3049ZM86.813 85.656C87.069 85.1547 87.4317 84.7653 87.901 84.488C88.381 84.2107 88.9623 84.072 89.645 84.072V85.576H89.261C87.629 85.576 86.813 86.4613 86.813 88.232V93H85.357V84.232H86.813V85.656ZM90.7818 88.584C90.7818 87.688 90.9631 86.904 91.3258 86.232C91.6884 85.5493 92.1844 85.0213 92.8138 84.648C93.4538 84.2747 94.1631 84.088 94.9418 84.088C95.7098 84.088 96.3764 84.2533 96.9418 84.584C97.5071 84.9147 97.9284 85.3307 98.2058 85.832V84.232H99.6778V93H98.2058V91.368C97.9178 91.88 97.4858 92.3067 96.9098 92.648C96.3444 92.9787 95.6831 93.144 94.9258 93.144C94.1471 93.144 93.4431 92.952 92.8138 92.568C92.1844 92.184 91.6884 91.6453 91.3258 90.952C90.9631 90.2587 90.7818 89.4693 90.7818 88.584ZM98.2058 88.6C98.2058 87.9387 98.0724 87.3627 97.8058 86.872C97.5391 86.3813 97.1764 86.008 96.7178 85.752C96.2698 85.4853 95.7738 85.352 95.2298 85.352C94.6858 85.352 94.1898 85.48 93.7418 85.736C93.2938 85.992 92.9364 86.3653 92.6698 86.856C92.4031 87.3467 92.2698 87.9227 92.2698 88.584C92.2698 89.256 92.4031 89.8427 92.6698 90.344C92.9364 90.8347 93.2938 91.2133 93.7418 91.48C94.1898 91.736 94.6858 91.864 95.2298 91.864C95.7738 91.864 96.2698 91.736 96.7178 91.48C97.1764 91.2133 97.5391 90.8347 97.8058 90.344C98.0724 89.8427 98.2058 89.2613 98.2058 88.6ZM103.914 85.432V90.6C103.914 91.0267 104.005 91.3307 104.186 91.512C104.368 91.6827 104.682 91.768 105.13 91.768H106.202V93H104.89C104.08 93 103.472 92.8133 103.066 92.44C102.661 92.0667 102.458 91.4533 102.458 90.6V85.432H101.322V84.232H102.458V82.024H103.914V84.232H106.202V85.432H103.914ZM115.966 88.28C115.966 88.5573 115.95 88.8507 115.918 89.16H108.91C108.964 90.024 109.257 90.7013 109.79 91.192C110.334 91.672 110.99 91.912 111.758 91.912C112.388 91.912 112.91 91.768 113.326 91.48C113.753 91.1813 114.052 90.7867 114.222 90.296H115.79C115.556 91.1387 115.086 91.8267 114.382 92.36C113.678 92.8827 112.804 93.144 111.758 93.144C110.926 93.144 110.18 92.9573 109.518 92.584C108.868 92.2107 108.356 91.6827 107.982 91C107.609 90.3067 107.422 89.5067 107.422 88.6C107.422 87.6933 107.604 86.8987 107.966 86.216C108.329 85.5333 108.836 85.0107 109.486 84.648C110.148 84.2747 110.905 84.088 111.758 84.088C112.59 84.088 113.326 84.2693 113.966 84.632C114.606 84.9947 115.097 85.496 115.438 86.136C115.79 86.7653 115.966 87.48 115.966 88.28ZM114.462 87.976C114.462 87.4213 114.34 86.9467 114.094 86.552C113.849 86.1467 113.513 85.8427 113.086 85.64C112.67 85.4267 112.206 85.32 111.694 85.32C110.958 85.32 110.329 85.5547 109.806 86.024C109.294 86.4933 109.001 87.144 108.926 87.976H114.462ZM121.504 84.088C122.262 84.088 122.923 84.2533 123.488 84.584C124.064 84.9147 124.491 85.3307 124.768 85.832V84.232H126.24V93.192C126.24 93.992 126.07 94.7013 125.728 95.32C125.387 95.9493 124.896 96.44 124.256 96.792C123.627 97.144 122.891 97.32 122.048 97.32C120.896 97.32 119.936 97.048 119.168 96.504C118.4 95.96 117.947 95.2187 117.808 94.28H119.248C119.408 94.8133 119.739 95.24 120.24 95.56C120.742 95.8907 121.344 96.056 122.048 96.056C122.848 96.056 123.499 95.8053 124 95.304C124.512 94.8027 124.768 94.0987 124.768 93.192V91.352C124.48 91.864 124.054 92.2907 123.488 92.632C122.923 92.9733 122.262 93.144 121.504 93.144C120.726 93.144 120.016 92.952 119.376 92.568C118.747 92.184 118.251 91.6453 117.888 90.952C117.526 90.2587 117.344 89.4693 117.344 88.584C117.344 87.688 117.526 86.904 117.888 86.232C118.251 85.5493 118.747 85.0213 119.376 84.648C120.016 84.2747 120.726 84.088 121.504 84.088ZM124.768 88.6C124.768 87.9387 124.635 87.3627 124.368 86.872C124.102 86.3813 123.739 86.008 123.28 85.752C122.832 85.4853 122.336 85.352 121.792 85.352C121.248 85.352 120.752 85.48 120.304 85.736C119.856 85.992 119.499 86.3653 119.232 86.856C118.966 87.3467 118.832 87.9227 118.832 88.584C118.832 89.256 118.966 89.8427 119.232 90.344C119.499 90.8347 119.856 91.2133 120.304 91.48C120.752 91.736 121.248 91.864 121.792 91.864C122.336 91.864 122.832 91.736 123.28 91.48C123.739 91.2133 124.102 90.8347 124.368 90.344C124.635 89.8427 124.768 89.2613 124.768 88.6ZM136.253 84.232L130.973 97.128H129.469L131.197 92.904L127.661 84.232H129.277L132.029 91.336L134.749 84.232H136.253ZM6.816 127.256C7.22133 127.32 7.58933 127.485 7.92 127.752C8.26133 128.019 8.528 128.349 8.72 128.744C8.92267 129.139 9.024 129.56 9.024 130.008C9.024 130.573 8.88 131.085 8.592 131.544C8.304 131.992 7.88267 132.349 7.328 132.616C6.784 132.872 6.13867 133 5.392 133H1.232V121.848H5.232C5.98933 121.848 6.63467 121.976 7.168 122.232C7.70133 122.477 8.10133 122.813 8.368 123.24C8.63467 123.667 8.768 124.147 8.768 124.68C8.768 125.341 8.58667 125.891 8.224 126.328C7.872 126.755 7.40267 127.064 6.816 127.256ZM2.688 126.664H5.136C5.81867 126.664 6.34667 126.504 6.72 126.184C7.09333 125.864 7.28 125.421 7.28 124.856C7.28 124.291 7.09333 123.848 6.72 123.528C6.34667 123.208 5.808 123.048 5.104 123.048H2.688V126.664ZM5.264 131.8C5.98933 131.8 6.55467 131.629 6.96 131.288C7.36533 130.947 7.568 130.472 7.568 129.864C7.568 129.245 7.35467 128.76 6.928 128.408C6.50133 128.045 5.93067 127.864 5.216 127.864H2.688V131.8H5.264ZM12.5005 125.656C12.7565 125.155 13.1192 124.765 13.5885 124.488C14.0685 124.211 14.6498 124.072 15.3325 124.072V125.576H14.9485C13.3165 125.576 12.5005 126.461 12.5005 128.232V133H11.0445V124.232H12.5005V125.656ZM16.4693 128.584C16.4693 127.688 16.6506 126.904 17.0133 126.232C17.3759 125.549 17.8719 125.021 18.5013 124.648C19.1413 124.275 19.8506 124.088 20.6293 124.088C21.3973 124.088 22.0639 124.253 22.6293 124.584C23.1946 124.915 23.6159 125.331 23.8933 125.832V124.232H25.3653V133H23.8933V131.368C23.6053 131.88 23.1733 132.307 22.5973 132.648C22.0319 132.979 21.3706 133.144 20.6133 133.144C19.8346 133.144 19.1306 132.952 18.5013 132.568C17.8719 132.184 17.3759 131.645 17.0133 130.952C16.6506 130.259 16.4693 129.469 16.4693 128.584ZM23.8933 128.6C23.8933 127.939 23.7599 127.363 23.4933 126.872C23.2266 126.381 22.8639 126.008 22.4053 125.752C21.9573 125.485 21.4613 125.352 20.9173 125.352C20.3733 125.352 19.8773 125.48 19.4293 125.736C18.9813 125.992 18.6239 126.365 18.3573 126.856C18.0906 127.347 17.9573 127.923 17.9573 128.584C17.9573 129.256 18.0906 129.843 18.3573 130.344C18.6239 130.835 18.9813 131.213 19.4293 131.48C19.8773 131.736 20.3733 131.864 20.9173 131.864C21.4613 131.864 21.9573 131.736 22.4053 131.48C22.8639 131.213 23.2266 130.835 23.4933 130.344C23.7599 129.843 23.8933 129.261 23.8933 128.6ZM32.0978 124.072C33.1644 124.072 34.0284 124.397 34.6898 125.048C35.3511 125.688 35.6818 126.616 35.6818 127.832V133H34.2418V128.04C34.2418 127.165 34.0231 126.499 33.5858 126.04C33.1484 125.571 32.5511 125.336 31.7938 125.336C31.0258 125.336 30.4124 125.576 29.9538 126.056C29.5058 126.536 29.2818 127.235 29.2818 128.152V133H27.8258V124.232H29.2818V125.48C29.5698 125.032 29.9591 124.685 30.4498 124.44C30.9511 124.195 31.5004 124.072 32.0978 124.072ZM37.5161 128.584C37.5161 127.688 37.6975 126.904 38.0601 126.232C38.4228 125.549 38.9188 125.021 39.5481 124.648C40.1881 124.275 40.9028 124.088 41.6921 124.088C42.3748 124.088 43.0095 124.248 43.5961 124.568C44.1828 124.877 44.6308 125.288 44.9401 125.8V121.16H46.4121V133H44.9401V131.352C44.6521 131.875 44.2255 132.307 43.6601 132.648C43.0948 132.979 42.4335 133.144 41.6761 133.144C40.8975 133.144 40.1881 132.952 39.5481 132.568C38.9188 132.184 38.4228 131.645 38.0601 130.952C37.6975 130.259 37.5161 129.469 37.5161 128.584ZM44.9401 128.6C44.9401 127.939 44.8068 127.363 44.5401 126.872C44.2735 126.381 43.9108 126.008 43.4521 125.752C43.0041 125.485 42.5081 125.352 41.9641 125.352C41.4201 125.352 40.9241 125.48 40.4761 125.736C40.0281 125.992 39.6708 126.365 39.4041 126.856C39.1375 127.347 39.0041 127.923 39.0041 128.584C39.0041 129.256 39.1375 129.843 39.4041 130.344C39.6708 130.835 40.0281 131.213 40.4761 131.48C40.9241 131.736 41.4201 131.864 41.9641 131.864C42.5081 131.864 43.0041 131.736 43.4521 131.48C43.9108 131.213 44.2735 130.835 44.5401 130.344C44.8068 129.843 44.9401 129.261 44.9401 128.6ZM56.6743 133.112C55.9383 133.112 55.2769 132.984 54.6903 132.728C54.1143 132.461 53.6609 132.099 53.3303 131.64C52.9996 131.171 52.8289 130.632 52.8183 130.024H54.3703C54.4236 130.547 54.6369 130.989 55.0103 131.352C55.3943 131.704 55.9489 131.88 56.6743 131.88C57.3676 131.88 57.9116 131.709 58.3063 131.368C58.7116 131.016 58.9143 130.568 58.9143 130.024C58.9143 129.597 58.7969 129.251 58.5623 128.984C58.3276 128.717 58.0343 128.515 57.6823 128.376C57.3303 128.237 56.8556 128.088 56.2583 127.928C55.5223 127.736 54.9303 127.544 54.4823 127.352C54.0449 127.16 53.6663 126.861 53.3463 126.456C53.0369 126.04 52.8823 125.485 52.8823 124.792C52.8823 124.184 53.0369 123.645 53.3463 123.176C53.6556 122.707 54.0876 122.344 54.6423 122.088C55.2076 121.832 55.8529 121.704 56.5783 121.704C57.6236 121.704 58.4769 121.965 59.1383 122.488C59.8103 123.011 60.1889 123.704 60.2743 124.568H58.6743C58.6209 124.141 58.3969 123.768 58.0023 123.448C57.6076 123.117 57.0849 122.952 56.4343 122.952C55.8263 122.952 55.3303 123.112 54.9463 123.432C54.5623 123.741 54.3703 124.179 54.3703 124.744C54.3703 125.149 54.4823 125.48 54.7063 125.736C54.9409 125.992 55.2236 126.189 55.5543 126.328C55.8956 126.456 56.3703 126.605 56.9783 126.776C57.7143 126.979 58.3063 127.181 58.7543 127.384C59.2023 127.576 59.5863 127.88 59.9062 128.296C60.2263 128.701 60.3863 129.256 60.3863 129.96C60.3863 130.504 60.2423 131.016 59.9543 131.496C59.6663 131.976 59.2396 132.365 58.6743 132.664C58.1089 132.963 57.4423 133.112 56.6743 133.112ZM64.3049 125.432V130.6C64.3049 131.027 64.3955 131.331 64.5769 131.512C64.7582 131.683 65.0729 131.768 65.5209 131.768H66.5929V133H65.2809C64.4702 133 63.8622 132.813 63.4569 132.44C63.0515 132.067 62.8489 131.453 62.8489 130.6V125.432H61.7129V124.232H62.8489V122.024H64.3049V124.232H66.5929V125.432H64.3049ZM69.813 125.656C70.069 125.155 70.4317 124.765 70.901 124.488C71.381 124.211 71.9623 124.072 72.645 124.072V125.576H72.261C70.629 125.576 69.813 126.461 69.813 128.232V133H68.357V124.232H69.813V125.656ZM73.7818 128.584C73.7818 127.688 73.9631 126.904 74.3258 126.232C74.6884 125.549 75.1844 125.021 75.8138 124.648C76.4538 124.275 77.1631 124.088 77.9418 124.088C78.7098 124.088 79.3764 124.253 79.9418 124.584C80.5071 124.915 80.9284 125.331 81.2058 125.832V124.232H82.6778V133H81.2058V131.368C80.9178 131.88 80.4858 132.307 79.9098 132.648C79.3444 132.979 78.6831 133.144 77.9258 133.144C77.1471 133.144 76.4431 132.952 75.8138 132.568C75.1844 132.184 74.6884 131.645 74.3258 130.952C73.9631 130.259 73.7818 129.469 73.7818 128.584ZM81.2058 128.6C81.2058 127.939 81.0724 127.363 80.8058 126.872C80.5391 126.381 80.1764 126.008 79.7178 125.752C79.2698 125.485 78.7738 125.352 78.2298 125.352C77.6858 125.352 77.1898 125.48 76.7418 125.736C76.2938 125.992 75.9364 126.365 75.6698 126.856C75.4031 127.347 75.2698 127.923 75.2698 128.584C75.2698 129.256 75.4031 129.843 75.6698 130.344C75.9364 130.835 76.2938 131.213 76.7418 131.48C77.1898 131.736 77.6858 131.864 78.2298 131.864C78.7738 131.864 79.2698 131.736 79.7178 131.48C80.1764 131.213 80.5391 130.835 80.8058 130.344C81.0724 129.843 81.2058 129.261 81.2058 128.6ZM86.9143 125.432V130.6C86.9143 131.027 87.0049 131.331 87.1863 131.512C87.3676 131.683 87.6823 131.768 88.1302 131.768H89.2023V133H87.8903C87.0796 133 86.4716 132.813 86.0663 132.44C85.6609 132.067 85.4583 131.453 85.4583 130.6V125.432H84.3223V124.232H85.4583V122.024H86.9143V124.232H89.2023V125.432H86.9143ZM98.9664 128.28C98.9664 128.557 98.9504 128.851 98.9184 129.16H91.9104C91.9637 130.024 92.257 130.701 92.7904 131.192C93.3344 131.672 93.9904 131.912 94.7584 131.912C95.3877 131.912 95.9104 131.768 96.3264 131.48C96.753 131.181 97.0517 130.787 97.2224 130.296H98.7904C98.5557 131.139 98.0864 131.827 97.3824 132.36C96.6784 132.883 95.8037 133.144 94.7584 133.144C93.9264 133.144 93.1797 132.957 92.5184 132.584C91.8677 132.211 91.3557 131.683 90.9824 131C90.609 130.307 90.4224 129.507 90.4224 128.6C90.4224 127.693 90.6037 126.899 90.9664 126.216C91.329 125.533 91.8357 125.011 92.4864 124.648C93.1477 124.275 93.905 124.088 94.7584 124.088C95.5904 124.088 96.3264 124.269 96.9664 124.632C97.6064 124.995 98.097 125.496 98.4384 126.136C98.7904 126.765 98.9664 127.48 98.9664 128.28ZM97.4624 127.976C97.4624 127.421 97.3397 126.947 97.0944 126.552C96.849 126.147 96.513 125.843 96.0864 125.64C95.6704 125.427 95.2064 125.32 94.6944 125.32C93.9584 125.32 93.329 125.555 92.8064 126.024C92.2944 126.493 92.001 127.144 91.9264 127.976H97.4624ZM104.504 124.088C105.262 124.088 105.923 124.253 106.488 124.584C107.064 124.915 107.491 125.331 107.768 125.832V124.232H109.24V133.192C109.24 133.992 109.07 134.701 108.728 135.32C108.387 135.949 107.896 136.44 107.256 136.792C106.627 137.144 105.891 137.32 105.048 137.32C103.896 137.32 102.936 137.048 102.168 136.504C101.4 135.96 100.947 135.219 100.808 134.28H102.248C102.408 134.813 102.739 135.24 103.24 135.56C103.742 135.891 104.344 136.056 105.048 136.056C105.848 136.056 106.499 135.805 107 135.304C107.512 134.803 107.768 134.099 107.768 133.192V131.352C107.48 131.864 107.054 132.291 106.488 132.632C105.923 132.973 105.262 133.144 104.504 133.144C103.726 133.144 103.016 132.952 102.376 132.568C101.747 132.184 101.251 131.645 100.888 130.952C100.526 130.259 100.344 129.469 100.344 128.584C100.344 127.688 100.526 126.904 100.888 126.232C101.251 125.549 101.747 125.021 102.376 124.648C103.016 124.275 103.726 124.088 104.504 124.088ZM107.768 128.6C107.768 127.939 107.635 127.363 107.368 126.872C107.102 126.381 106.739 126.008 106.28 125.752C105.832 125.485 105.336 125.352 104.792 125.352C104.248 125.352 103.752 125.48 103.304 125.736C102.856 125.992 102.499 126.365 102.232 126.856C101.966 127.347 101.832 127.923 101.832 128.584C101.832 129.256 101.966 129.843 102.232 130.344C102.499 130.835 102.856 131.213 103.304 131.48C103.752 131.736 104.248 131.864 104.792 131.864C105.336 131.864 105.832 131.736 106.28 131.48C106.739 131.213 107.102 130.835 107.368 130.344C107.635 129.843 107.768 129.261 107.768 128.6ZM119.253 124.232L113.973 137.128H112.469L114.197 132.904L110.661 124.232H112.277L115.029 131.336L117.749 124.232H119.253ZM4.704 161.848C5.92 161.848 6.97067 162.077 7.856 162.536C8.752 162.984 9.43467 163.629 9.904 164.472C10.384 165.315 10.624 166.307 10.624 167.448C10.624 168.589 10.384 169.581 9.904 170.424C9.43467 171.256 8.752 171.896 7.856 172.344C6.97067 172.781 5.92 173 4.704 173H1.232V161.848H4.704ZM4.704 171.8C6.144 171.8 7.24267 171.421 8 170.664C8.75733 169.896 9.136 168.824 9.136 167.448C9.136 166.061 8.752 164.979 7.984 164.2C7.22667 163.421 6.13333 163.032 4.704 163.032H2.688V171.8H4.704ZM20.5445 168.28C20.5445 168.557 20.5285 168.851 20.4965 169.16H13.4885C13.5418 170.024 13.8352 170.701 14.3685 171.192C14.9125 171.672 15.5685 171.912 16.3365 171.912C16.9658 171.912 17.4885 171.768 17.9045 171.48C18.3312 171.181 18.6298 170.787 18.8005 170.296H20.3685C20.1338 171.139 19.6645 171.827 18.9605 172.36C18.2565 172.883 17.3818 173.144 16.3365 173.144C15.5045 173.144 14.7578 172.957 14.0965 172.584C13.4458 172.211 12.9338 171.683 12.5605 171C12.1872 170.307 12.0005 169.507 12.0005 168.6C12.0005 167.693 12.1818 166.899 12.5445 166.216C12.9072 165.533 13.4138 165.011 14.0645 164.648C14.7258 164.275 15.4832 164.088 16.3365 164.088C17.1685 164.088 17.9045 164.269 18.5445 164.632C19.1845 164.995 19.6752 165.496 20.0165 166.136C20.3685 166.765 20.5445 167.48 20.5445 168.28ZM19.0405 167.976C19.0405 167.421 18.9178 166.947 18.6725 166.552C18.4272 166.147 18.0912 165.843 17.6645 165.64C17.2485 165.427 16.7845 165.32 16.2725 165.32C15.5365 165.32 14.9072 165.555 14.3845 166.024C13.8725 166.493 13.5792 167.144 13.5045 167.976H19.0405ZM25.7304 171.656L28.4504 164.232H30.0024L26.5624 173H24.8664L21.4264 164.232H22.9944L25.7304 171.656ZM39.4351 168.28C39.4351 168.557 39.4191 168.851 39.3871 169.16H32.3791C32.4325 170.024 32.7258 170.701 33.2591 171.192C33.8031 171.672 34.4591 171.912 35.2271 171.912C35.8565 171.912 36.3791 171.768 36.7951 171.48C37.2218 171.181 37.5205 170.787 37.6911 170.296H39.2591C39.0245 171.139 38.5551 171.827 37.8511 172.36C37.1471 172.883 36.2725 173.144 35.2271 173.144C34.3951 173.144 33.6485 172.957 32.9871 172.584C32.3365 172.211 31.8245 171.683 31.4511 171C31.0778 170.307 30.8911 169.507 30.8911 168.6C30.8911 167.693 31.0725 166.899 31.4351 166.216C31.7978 165.533 32.3045 165.011 32.9551 164.648C33.6165 164.275 34.3738 164.088 35.2271 164.088C36.0591 164.088 36.7951 164.269 37.4351 164.632C38.0751 164.995 38.5658 165.496 38.9071 166.136C39.2591 166.765 39.4351 167.48 39.4351 168.28ZM37.9311 167.976C37.9311 167.421 37.8085 166.947 37.5631 166.552C37.3178 166.147 36.9818 165.843 36.5551 165.64C36.1391 165.427 35.6751 165.32 35.1631 165.32C34.4271 165.32 33.7978 165.555 33.2751 166.024C32.7631 166.493 32.4698 167.144 32.3951 167.976H37.9311ZM42.813 161.16V173H41.357V161.16H42.813ZM49.1185 173.144C48.2972 173.144 47.5505 172.957 46.8785 172.584C46.2172 172.211 45.6945 171.683 45.3105 171C44.9372 170.307 44.7505 169.507 44.7505 168.6C44.7505 167.704 44.9425 166.915 45.3265 166.232C45.7212 165.539 46.2545 165.011 46.9265 164.648C47.5985 164.275 48.3505 164.088 49.1825 164.088C50.0145 164.088 50.7665 164.275 51.4385 164.648C52.1105 165.011 52.6385 165.533 53.0225 166.216C53.4172 166.899 53.6145 167.693 53.6145 168.6C53.6145 169.507 53.4118 170.307 53.0065 171C52.6118 171.683 52.0732 172.211 51.3905 172.584C50.7078 172.957 49.9505 173.144 49.1185 173.144ZM49.1185 171.864C49.6412 171.864 50.1318 171.741 50.5905 171.496C51.0492 171.251 51.4172 170.883 51.6945 170.392C51.9825 169.901 52.1265 169.304 52.1265 168.6C52.1265 167.896 51.9878 167.299 51.7105 166.808C51.4332 166.317 51.0705 165.955 50.6225 165.72C50.1745 165.475 49.6892 165.352 49.1665 165.352C48.6332 165.352 48.1425 165.475 47.6945 165.72C47.2572 165.955 46.9052 166.317 46.6385 166.808C46.3718 167.299 46.2385 167.896 46.2385 168.6C46.2385 169.315 46.3665 169.917 46.6225 170.408C46.8892 170.899 47.2412 171.267 47.6785 171.512C48.1158 171.747 48.5958 171.864 49.1185 171.864ZM56.9849 165.848C57.2729 165.347 57.6995 164.931 58.2649 164.6C58.8409 164.259 59.5075 164.088 60.2649 164.088C61.0435 164.088 61.7475 164.275 62.3769 164.648C63.0169 165.021 63.5182 165.549 63.8809 166.232C64.2435 166.904 64.4249 167.688 64.4249 168.584C64.4249 169.469 64.2435 170.259 63.8809 170.952C63.5182 171.645 63.0169 172.184 62.3769 172.568C61.7475 172.952 61.0435 173.144 60.2649 173.144C59.5182 173.144 58.8569 172.979 58.2809 172.648C57.7155 172.307 57.2835 171.885 56.9849 171.384V177.16H55.5289V164.232H56.9849V165.848ZM62.9369 168.584C62.9369 167.923 62.8035 167.347 62.5369 166.856C62.2702 166.365 61.9075 165.992 61.4489 165.736C61.0009 165.48 60.5049 165.352 59.9609 165.352C59.4275 165.352 58.9315 165.485 58.4729 165.752C58.0249 166.008 57.6622 166.387 57.3849 166.888C57.1182 167.379 56.9849 167.949 56.9849 168.6C56.9849 169.261 57.1182 169.843 57.3849 170.344C57.6622 170.835 58.0249 171.213 58.4729 171.48C58.9315 171.736 59.4275 171.864 59.9609 171.864C60.5049 171.864 61.0009 171.736 61.4489 171.48C61.9075 171.213 62.2702 170.835 62.5369 170.344C62.8035 169.843 62.9369 169.256 62.9369 168.584ZM76.8854 164.072C77.568 164.072 78.176 164.216 78.7094 164.504C79.2427 164.781 79.664 165.203 79.9734 165.768C80.2827 166.333 80.4374 167.021 80.4374 167.832V173H78.9974V168.04C78.9974 167.165 78.7787 166.499 78.3414 166.04C77.9147 165.571 77.3334 165.336 76.5974 165.336C75.84 165.336 75.2374 165.581 74.7894 166.072C74.3414 166.552 74.1174 167.251 74.1174 168.168V173H72.6774V168.04C72.6774 167.165 72.4587 166.499 72.0214 166.04C71.5947 165.571 71.0134 165.336 70.2774 165.336C69.52 165.336 68.9174 165.581 68.4694 166.072C68.0214 166.552 67.7974 167.251 67.7974 168.168V173H66.3414V164.232H67.7974V165.496C68.0854 165.037 68.4694 164.685 68.9494 164.44C69.44 164.195 69.9787 164.072 70.5654 164.072C71.3014 164.072 71.952 164.237 72.5174 164.568C73.0827 164.899 73.504 165.384 73.7814 166.024C74.0267 165.405 74.432 164.925 74.9974 164.584C75.5627 164.243 76.192 164.072 76.8854 164.072ZM90.8258 168.28C90.8258 168.557 90.8098 168.851 90.7778 169.16H83.7698C83.8231 170.024 84.1164 170.701 84.6498 171.192C85.1938 171.672 85.8498 171.912 86.6178 171.912C87.2471 171.912 87.7698 171.768 88.1858 171.48C88.6124 171.181 88.9111 170.787 89.0818 170.296H90.6498C90.4151 171.139 89.9458 171.827 89.2418 172.36C88.5378 172.883 87.6631 173.144 86.6178 173.144C85.7858 173.144 85.0391 172.957 84.3778 172.584C83.7271 172.211 83.2151 171.683 82.8418 171C82.4684 170.307 82.2818 169.507 82.2818 168.6C82.2818 167.693 82.4631 166.899 82.8258 166.216C83.1884 165.533 83.6951 165.011 84.3458 164.648C85.0071 164.275 85.7644 164.088 86.6178 164.088C87.4498 164.088 88.1858 164.269 88.8258 164.632C89.4658 164.995 89.9564 165.496 90.2978 166.136C90.6498 166.765 90.8258 167.48 90.8258 168.28ZM89.3218 167.976C89.3218 167.421 89.1991 166.947 88.9538 166.552C88.7084 166.147 88.3724 165.843 87.9458 165.64C87.5298 165.427 87.0658 165.32 86.5538 165.32C85.8178 165.32 85.1884 165.555 84.6658 166.024C84.1538 166.493 83.8604 167.144 83.7858 167.976H89.3218ZM97.0196 164.072C98.0863 164.072 98.9503 164.397 99.6116 165.048C100.273 165.688 100.604 166.616 100.604 167.832V173H99.1636V168.04C99.1636 167.165 98.945 166.499 98.5076 166.04C98.0703 165.571 97.473 165.336 96.7156 165.336C95.9476 165.336 95.3343 165.576 94.8756 166.056C94.4276 166.536 94.2036 167.235 94.2036 168.152V173H92.7476V164.232H94.2036V165.48C94.4916 165.032 94.881 164.685 95.3716 164.44C95.873 164.195 96.4223 164.072 97.0196 164.072ZM104.758 165.432V170.6C104.758 171.027 104.849 171.331 105.03 171.512C105.211 171.683 105.526 171.768 105.974 171.768H107.046V173H105.734C104.923 173 104.315 172.813 103.91 172.44C103.505 172.067 103.302 171.453 103.302 170.6V165.432H102.166V164.232H103.302V162.024H104.758V164.232H107.046V165.432H104.758Z" fill="#B6C197"/>
</svg>
