<svg width="247" height="40" viewBox="0 0 247 40" fill="none" xmlns="http://www.w3.org/2000/svg">
<path d="M7.536 1.848V3.032H2.688V6.792H6.624V7.976H2.688V13H1.232V1.848H7.536ZM17.2945 8.28C17.2945 8.55733 17.2785 8.85067 17.2465 9.16H10.2385C10.2918 10.024 10.5852 10.7013 11.1185 11.192C11.6625 11.672 12.3185 11.912 13.0865 11.912C13.7158 11.912 14.2385 11.768 14.6545 11.48C15.0812 11.1813 15.3798 10.7867 15.5505 10.296H17.1185C16.8838 11.1387 16.4145 11.8267 15.7105 12.36C15.0065 12.8827 14.1318 13.144 13.0865 13.144C12.2545 13.144 11.5078 12.9573 10.8465 12.584C10.1958 12.2107 9.68383 11.6827 9.3105 11C8.93717 10.3067 8.7505 9.50667 8.7505 8.6C8.7505 7.69333 8.93183 6.89867 9.2945 6.216C9.65717 5.53333 10.1638 5.01067 10.8145 4.648C11.4758 4.27467 12.2332 4.088 13.0865 4.088C13.9185 4.088 14.6545 4.26933 15.2945 4.632C15.9345 4.99467 16.4252 5.496 16.7665 6.136C17.1185 6.76533 17.2945 7.48 17.2945 8.28ZM15.7905 7.976C15.7905 7.42133 15.6678 6.94667 15.4225 6.552C15.1772 6.14667 14.8412 5.84267 14.4145 5.64C13.9985 5.42667 13.5345 5.32 13.0225 5.32C12.2865 5.32 11.6572 5.55467 11.1345 6.024C10.6225 6.49333 10.3292 7.144 10.2545 7.976H15.7905ZM27.2164 8.28C27.2164 8.55733 27.2004 8.85067 27.1684 9.16H20.1604C20.2137 10.024 20.507 10.7013 21.0404 11.192C21.5844 11.672 22.2404 11.912 23.0084 11.912C23.6377 11.912 24.1604 11.768 24.5764 11.48C25.003 11.1813 25.3017 10.7867 25.4724 10.296H27.0404C26.8057 11.1387 26.3364 11.8267 25.6324 12.36C24.9284 12.8827 24.0537 13.144 23.0084 13.144C22.1764 13.144 21.4297 12.9573 20.7684 12.584C20.1177 12.2107 19.6057 11.6827 19.2324 11C18.859 10.3067 18.6724 9.50667 18.6724 8.6C18.6724 7.69333 18.8537 6.89867 19.2164 6.216C19.579 5.53333 20.0857 5.01067 20.7364 4.648C21.3977 4.27467 22.155 4.088 23.0084 4.088C23.8404 4.088 24.5764 4.26933 25.2164 4.632C25.8564 4.99467 26.347 5.496 26.6884 6.136C27.0404 6.76533 27.2164 7.48 27.2164 8.28ZM25.7124 7.976C25.7124 7.42133 25.5897 6.94667 25.3444 6.552C25.099 6.14667 24.763 5.84267 24.3364 5.64C23.9204 5.42667 23.4564 5.32 22.9444 5.32C22.2084 5.32 21.579 5.55467 21.0564 6.024C20.5444 6.49333 20.251 7.144 20.1764 7.976H25.7124ZM30.5943 1.16V13H29.1383V1.16H30.5943ZM40.9094 5.432H39.0694V13H37.6134V5.432H36.4774V4.232H37.6134V3.608C37.6134 2.62667 37.864 1.912 38.3654 1.464C38.8774 1.00533 39.6934 0.775999 40.8134 0.775999V1.992C40.1734 1.992 39.72 2.12 39.4534 2.376C39.1974 2.62133 39.0694 3.032 39.0694 3.608V4.232H40.9094V5.432ZM44.063 5.656C44.319 5.15467 44.6817 4.76533 45.151 4.488C45.631 4.21067 46.2123 4.072 46.895 4.072V5.576H46.511C44.879 5.576 44.063 6.46133 44.063 8.232V13H42.607V4.232H44.063V5.656ZM56.5758 8.28C56.5758 8.55733 56.5598 8.85067 56.5278 9.16H49.5198C49.5731 10.024 49.8664 10.7013 50.3998 11.192C50.9438 11.672 51.5998 11.912 52.3678 11.912C52.9971 11.912 53.5198 11.768 53.9358 11.48C54.3624 11.1813 54.6611 10.7867 54.8318 10.296H56.3998C56.1651 11.1387 55.6958 11.8267 54.9918 12.36C54.2878 12.8827 53.4131 13.144 52.3678 13.144C51.5358 13.144 50.7891 12.9573 50.1278 12.584C49.4771 12.2107 48.9651 11.6827 48.5918 11C48.2184 10.3067 48.0318 9.50667 48.0318 8.6C48.0318 7.69333 48.2131 6.89867 48.5758 6.216C48.9384 5.53333 49.4451 5.01067 50.0958 4.648C50.7571 4.27467 51.5144 4.088 52.3678 4.088C53.1998 4.088 53.9358 4.26933 54.5758 4.632C55.2158 4.99467 55.7064 5.496 56.0478 6.136C56.3998 6.76533 56.5758 7.48 56.5758 8.28ZM55.0718 7.976C55.0718 7.42133 54.9491 6.94667 54.7038 6.552C54.4584 6.14667 54.1224 5.84267 53.6958 5.64C53.2798 5.42667 52.8158 5.32 52.3038 5.32C51.5678 5.32 50.9384 5.55467 50.4158 6.024C49.9038 6.49333 49.6104 7.144 49.5358 7.976H55.0718ZM66.4976 8.28C66.4976 8.55733 66.4816 8.85067 66.4496 9.16H59.4416C59.495 10.024 59.7883 10.7013 60.3216 11.192C60.8656 11.672 61.5216 11.912 62.2896 11.912C62.919 11.912 63.4416 11.768 63.8576 11.48C64.2843 11.1813 64.583 10.7867 64.7536 10.296H66.3216C66.087 11.1387 65.6176 11.8267 64.9136 12.36C64.2096 12.8827 63.335 13.144 62.2896 13.144C61.4576 13.144 60.711 12.9573 60.0496 12.584C59.399 12.2107 58.887 11.6827 58.5136 11C58.1403 10.3067 57.9536 9.50667 57.9536 8.6C57.9536 7.69333 58.135 6.89867 58.4976 6.216C58.8603 5.53333 59.367 5.01067 60.0176 4.648C60.679 4.27467 61.4363 4.088 62.2896 4.088C63.1216 4.088 63.8576 4.26933 64.4976 4.632C65.1376 4.99467 65.6283 5.496 65.9696 6.136C66.3216 6.76533 66.4976 7.48 66.4976 8.28ZM64.9936 7.976C64.9936 7.42133 64.871 6.94667 64.6256 6.552C64.3803 6.14667 64.0443 5.84267 63.6176 5.64C63.2016 5.42667 62.7376 5.32 62.2256 5.32C61.4896 5.32 60.8603 5.55467 60.3376 6.024C59.8256 6.49333 59.5323 7.144 59.4576 7.976H64.9936ZM74.4611 5.432V10.6C74.4611 11.0267 74.5518 11.3307 74.7331 11.512C74.9145 11.6827 75.2291 11.768 75.6771 11.768H76.7491V13H75.4371C74.6265 13 74.0185 12.8133 73.6131 12.44C73.2078 12.0667 73.0051 11.4533 73.0051 10.6V5.432H71.8691V4.232H73.0051V2.024H74.4611V4.232H76.7491V5.432H74.4611ZM82.3373 13.144C81.5159 13.144 80.7693 12.9573 80.0973 12.584C79.4359 12.2107 78.9133 11.6827 78.5293 11C78.1559 10.3067 77.9693 9.50667 77.9693 8.6C77.9693 7.704 78.1613 6.91467 78.5453 6.232C78.9399 5.53867 79.4733 5.01067 80.1453 4.648C80.8173 4.27467 81.5693 4.088 82.4013 4.088C83.2333 4.088 83.9853 4.27467 84.6573 4.648C85.3293 5.01067 85.8573 5.53333 86.2413 6.216C86.6359 6.89867 86.8333 7.69333 86.8333 8.6C86.8333 9.50667 86.6306 10.3067 86.2253 11C85.8306 11.6827 85.2919 12.2107 84.6093 12.584C83.9266 12.9573 83.1693 13.144 82.3373 13.144ZM82.3373 11.864C82.8599 11.864 83.3506 11.7413 83.8093 11.496C84.2679 11.2507 84.6359 10.8827 84.9133 10.392C85.2013 9.90133 85.3453 9.304 85.3453 8.6C85.3453 7.896 85.2066 7.29867 84.9293 6.808C84.6519 6.31733 84.2893 5.95467 83.8413 5.72C83.3933 5.47467 82.9079 5.352 82.3853 5.352C81.8519 5.352 81.3613 5.47467 80.9133 5.72C80.4759 5.95467 80.1239 6.31733 79.8573 6.808C79.5906 7.29867 79.4573 7.896 79.4573 8.6C79.4573 9.31467 79.5853 9.91733 79.8413 10.408C80.1079 10.8987 80.4599 11.2667 80.8973 11.512C81.3346 11.7467 81.8146 11.864 82.3373 11.864ZM96.6293 4.088C97.3866 4.088 98.0479 4.25333 98.6133 4.584C99.1893 4.91467 99.6159 5.33067 99.8933 5.832V4.232H101.365V13.192C101.365 13.992 101.195 14.7013 100.853 15.32C100.512 15.9493 100.021 16.44 99.3813 16.792C98.7519 17.144 98.0159 17.32 97.1733 17.32C96.0213 17.32 95.0613 17.048 94.2933 16.504C93.5253 15.96 93.0719 15.2187 92.9333 14.28H94.3733C94.5333 14.8133 94.8639 15.24 95.3653 15.56C95.8666 15.8907 96.4693 16.056 97.1733 16.056C97.9733 16.056 98.6239 15.8053 99.1253 15.304C99.6373 14.8027 99.8933 14.0987 99.8933 13.192V11.352C99.6053 11.864 99.1786 12.2907 98.6133 12.632C98.0479 12.9733 97.3866 13.144 96.6293 13.144C95.8506 13.144 95.1413 12.952 94.5013 12.568C93.8719 12.184 93.3759 11.6453 93.0133 10.952C92.6506 10.2587 92.4693 9.46933 92.4693 8.584C92.4693 7.688 92.6506 6.904 93.0133 6.232C93.3759 5.54933 93.8719 5.02133 94.5013 4.648C95.1413 4.27467 95.8506 4.088 96.6293 4.088ZM99.8933 8.6C99.8933 7.93867 99.7599 7.36267 99.4933 6.872C99.2266 6.38133 98.8639 6.008 98.4053 5.752C97.9573 5.48533 97.4613 5.352 96.9173 5.352C96.3733 5.352 95.8773 5.48 95.4293 5.736C94.9813 5.992 94.6239 6.36533 94.3573 6.856C94.0906 7.34667 93.9573 7.92267 93.9573 8.584C93.9573 9.256 94.0906 9.84267 94.3573 10.344C94.6239 10.8347 94.9813 11.2133 95.4293 11.48C95.8773 11.736 96.3733 11.864 96.9173 11.864C97.4613 11.864 97.9573 11.736 98.4053 11.48C98.8639 11.2133 99.2266 10.8347 99.4933 10.344C99.7599 9.84267 99.8933 9.26133 99.8933 8.6ZM111.826 8.28C111.826 8.55733 111.81 8.85067 111.778 9.16H104.77C104.823 10.024 105.116 10.7013 105.65 11.192C106.194 11.672 106.85 11.912 107.618 11.912C108.247 11.912 108.77 11.768 109.186 11.48C109.612 11.1813 109.911 10.7867 110.082 10.296H111.65C111.415 11.1387 110.946 11.8267 110.242 12.36C109.538 12.8827 108.663 13.144 107.618 13.144C106.786 13.144 106.039 12.9573 105.378 12.584C104.727 12.2107 104.215 11.6827 103.842 11C103.468 10.3067 103.282 9.50667 103.282 8.6C103.282 7.69333 103.463 6.89867 103.826 6.216C104.188 5.53333 104.695 5.01067 105.346 4.648C106.007 4.27467 106.764 4.088 107.618 4.088C108.45 4.088 109.186 4.26933 109.826 4.632C110.466 4.99467 110.956 5.496 111.298 6.136C111.65 6.76533 111.826 7.48 111.826 8.28ZM110.322 7.976C110.322 7.42133 110.199 6.94667 109.954 6.552C109.708 6.14667 109.372 5.84267 108.946 5.64C108.53 5.42667 108.066 5.32 107.554 5.32C106.818 5.32 106.188 5.55467 105.666 6.024C105.154 6.49333 104.86 7.144 104.786 7.976H110.322ZM115.524 5.432V10.6C115.524 11.0267 115.614 11.3307 115.796 11.512C115.977 11.6827 116.292 11.768 116.74 11.768H117.812V13H116.5C115.689 13 115.081 12.8133 114.676 12.44C114.27 12.0667 114.068 11.4533 114.068 10.6V5.432H112.932V4.232H114.068V2.024H115.524V4.232H117.812V5.432H115.524ZM124.593 2.808C124.316 2.808 124.081 2.712 123.889 2.52C123.697 2.328 123.601 2.09333 123.601 1.816C123.601 1.53867 123.697 1.304 123.889 1.112C124.081 0.919999 124.316 0.823999 124.593 0.823999C124.86 0.823999 125.084 0.919999 125.265 1.112C125.457 1.304 125.553 1.53867 125.553 1.816C125.553 2.09333 125.457 2.328 125.265 2.52C125.084 2.712 124.86 2.808 124.593 2.808ZM125.297 4.232V13H123.841V4.232H125.297ZM132.051 4.072C133.118 4.072 133.982 4.39733 134.643 5.048C135.304 5.688 135.635 6.616 135.635 7.832V13H134.195V8.04C134.195 7.16533 133.976 6.49867 133.539 6.04C133.102 5.57067 132.504 5.336 131.747 5.336C130.979 5.336 130.366 5.576 129.907 6.056C129.459 6.536 129.235 7.23467 129.235 8.152V13H127.779V4.232H129.235V5.48C129.523 5.032 129.912 4.68533 130.403 4.44C130.904 4.19467 131.454 4.072 132.051 4.072ZM144.055 5.432V10.6C144.055 11.0267 144.146 11.3307 144.327 11.512C144.508 11.6827 144.823 11.768 145.271 11.768H146.343V13H145.031C144.22 13 143.612 12.8133 143.207 12.44C142.802 12.0667 142.599 11.4533 142.599 10.6V5.432H141.463V4.232H142.599V2.024H144.055V4.232H146.343V5.432H144.055ZM151.931 13.144C151.11 13.144 150.363 12.9573 149.691 12.584C149.03 12.2107 148.507 11.6827 148.123 11C147.75 10.3067 147.563 9.50667 147.563 8.6C147.563 7.704 147.755 6.91467 148.139 6.232C148.534 5.53867 149.067 5.01067 149.739 4.648C150.411 4.27467 151.163 4.088 151.995 4.088C152.827 4.088 153.579 4.27467 154.251 4.648C154.923 5.01067 155.451 5.53333 155.835 6.216C156.23 6.89867 156.427 7.69333 156.427 8.6C156.427 9.50667 156.224 10.3067 155.819 11C155.424 11.6827 154.886 12.2107 154.203 12.584C153.52 12.9573 152.763 13.144 151.931 13.144ZM151.931 11.864C152.454 11.864 152.944 11.7413 153.403 11.496C153.862 11.2507 154.23 10.8827 154.507 10.392C154.795 9.90133 154.939 9.304 154.939 8.6C154.939 7.896 154.8 7.29867 154.523 6.808C154.246 6.31733 153.883 5.95467 153.435 5.72C152.987 5.47467 152.502 5.352 151.979 5.352C151.446 5.352 150.955 5.47467 150.507 5.72C150.07 5.95467 149.718 6.31733 149.451 6.808C149.184 7.29867 149.051 7.896 149.051 8.6C149.051 9.31467 149.179 9.91733 149.435 10.408C149.702 10.8987 150.054 11.2667 150.491 11.512C150.928 11.7467 151.408 11.864 151.931 11.864ZM166.117 4.232V13H164.661V11.704C164.384 12.152 163.995 12.504 163.493 12.76C163.003 13.0053 162.459 13.128 161.861 13.128C161.179 13.128 160.565 12.9893 160.021 12.712C159.477 12.424 159.045 11.9973 158.725 11.432C158.416 10.8667 158.261 10.1787 158.261 9.368V4.232H159.701V9.176C159.701 10.04 159.92 10.7067 160.357 11.176C160.795 11.6347 161.392 11.864 162.149 11.864C162.928 11.864 163.541 11.624 163.989 11.144C164.437 10.664 164.661 9.96533 164.661 9.048V4.232H166.117ZM168.032 8.6C168.032 7.69333 168.213 6.904 168.576 6.232C168.938 5.54933 169.44 5.02133 170.08 4.648C170.73 4.27467 171.472 4.088 172.304 4.088C173.381 4.088 174.266 4.34933 174.96 4.872C175.664 5.39467 176.128 6.12 176.352 7.048H174.784C174.634 6.51467 174.341 6.09333 173.904 5.784C173.477 5.47467 172.944 5.32 172.304 5.32C171.472 5.32 170.8 5.608 170.288 6.184C169.776 6.74933 169.52 7.55467 169.52 8.6C169.52 9.656 169.776 10.472 170.288 11.048C170.8 11.624 171.472 11.912 172.304 11.912C172.944 11.912 173.477 11.7627 173.904 11.464C174.33 11.1653 174.624 10.7387 174.784 10.184H176.352C176.117 11.08 175.648 11.8 174.944 12.344C174.24 12.8773 173.36 13.144 172.304 13.144C171.472 13.144 170.73 12.9573 170.08 12.584C169.44 12.2107 168.938 11.6827 168.576 11C168.213 10.3173 168.032 9.51733 168.032 8.6ZM182.647 4.072C183.308 4.072 183.905 4.216 184.439 4.504C184.972 4.78133 185.388 5.20267 185.687 5.768C185.996 6.33333 186.151 7.02133 186.151 7.832V13H184.711V8.04C184.711 7.16533 184.492 6.49867 184.055 6.04C183.617 5.57067 183.02 5.336 182.263 5.336C181.495 5.336 180.881 5.576 180.423 6.056C179.975 6.536 179.751 7.23467 179.751 8.152V13H178.295V1.16H179.751V5.48C180.039 5.032 180.433 4.68533 180.935 4.44C181.447 4.19467 182.017 4.072 182.647 4.072ZM204.475 4.232L201.739 13H200.235L198.123 6.04L196.011 13H194.507L191.755 4.232H193.243L195.259 11.592L197.435 4.232H198.923L201.051 11.608L203.035 4.232H204.475ZM206.672 2.808C206.394 2.808 206.16 2.712 205.968 2.52C205.776 2.328 205.68 2.09333 205.68 1.816C205.68 1.53867 205.776 1.304 205.968 1.112C206.16 0.919999 206.394 0.823999 206.672 0.823999C206.938 0.823999 207.162 0.919999 207.344 1.112C207.536 1.304 207.632 1.53867 207.632 1.816C207.632 2.09333 207.536 2.328 207.344 2.52C207.162 2.712 206.938 2.808 206.672 2.808ZM207.376 4.232V13H205.92V4.232H207.376ZM211.633 5.432V10.6C211.633 11.0267 211.724 11.3307 211.905 11.512C212.086 11.6827 212.401 11.768 212.849 11.768H213.921V13H212.609C211.798 13 211.19 12.8133 210.785 12.44C210.38 12.0667 210.177 11.4533 210.177 10.6V5.432H209.041V4.232H210.177V2.024H211.633V4.232H213.921V5.432H211.633ZM220.037 4.072C220.698 4.072 221.296 4.216 221.829 4.504C222.362 4.78133 222.778 5.20267 223.077 5.768C223.386 6.33333 223.541 7.02133 223.541 7.832V13H222.101V8.04C222.101 7.16533 221.882 6.49867 221.445 6.04C221.008 5.57067 220.41 5.336 219.653 5.336C218.885 5.336 218.272 5.576 217.813 6.056C217.365 6.536 217.141 7.23467 217.141 8.152V13H215.685V1.16H217.141V5.48C217.429 5.032 217.824 4.68533 218.325 4.44C218.837 4.19467 219.408 4.072 220.037 4.072ZM237.961 4.232V13H236.505V11.704C236.228 12.152 235.838 12.504 235.337 12.76C234.846 13.0053 234.302 13.128 233.705 13.128C233.022 13.128 232.409 12.9893 231.865 12.712C231.321 12.424 230.889 11.9973 230.569 11.432C230.26 10.8667 230.105 10.1787 230.105 9.368V4.232H231.545V9.176C231.545 10.04 231.764 10.7067 232.201 11.176C232.638 11.6347 233.236 11.864 233.993 11.864C234.772 11.864 235.385 11.624 235.833 11.144C236.281 10.664 236.505 9.96533 236.505 9.048V4.232H237.961ZM243.524 13.144C242.852 13.144 242.249 13.032 241.716 12.808C241.182 12.5733 240.761 12.2533 240.452 11.848C240.142 11.432 239.972 10.9573 239.94 10.424H241.444C241.486 10.8613 241.689 11.2187 242.052 11.496C242.425 11.7733 242.91 11.912 243.508 11.912C244.062 11.912 244.5 11.7893 244.82 11.544C245.14 11.2987 245.3 10.9893 245.3 10.616C245.3 10.232 245.129 9.94933 244.788 9.768C244.446 9.576 243.918 9.38933 243.204 9.208C242.553 9.03733 242.02 8.86667 241.604 8.696C241.198 8.51467 240.846 8.25333 240.548 7.912C240.26 7.56 240.116 7.10133 240.116 6.536C240.116 6.088 240.249 5.67733 240.516 5.304C240.782 4.93067 241.161 4.63733 241.652 4.424C242.142 4.2 242.702 4.088 243.332 4.088C244.302 4.088 245.086 4.33333 245.684 4.824C246.281 5.31467 246.601 5.98667 246.644 6.84H245.188C245.156 6.38133 244.969 6.01333 244.628 5.736C244.297 5.45867 243.849 5.32 243.284 5.32C242.761 5.32 242.345 5.432 242.036 5.656C241.726 5.88 241.572 6.17333 241.572 6.536C241.572 6.824 241.662 7.064 241.844 7.256C242.036 7.43733 242.27 7.58667 242.548 7.704C242.836 7.81067 243.23 7.93333 243.732 8.072C244.361 8.24267 244.873 8.41333 245.268 8.584C245.662 8.744 245.998 8.98933 246.276 9.32C246.564 9.65067 246.713 10.0827 246.724 10.616C246.724 11.096 246.59 11.528 246.324 11.912C246.057 12.296 245.678 12.6 245.188 12.824C244.708 13.0373 244.153 13.144 243.524 13.144ZM4.496 37.656L7.216 30.232H8.768L5.328 39H3.632L0.192 30.232H1.76L4.496 37.656ZM9.65675 34.584C9.65675 33.688 9.83808 32.904 10.2008 32.232C10.5634 31.5493 11.0594 31.0213 11.6888 30.648C12.3288 30.2747 13.0381 30.088 13.8168 30.088C14.5848 30.088 15.2514 30.2533 15.8168 30.584C16.3821 30.9147 16.8034 31.3307 17.0808 31.832V30.232H18.5528V39H17.0808V37.368C16.7928 37.88 16.3608 38.3067 15.7848 38.648C15.2194 38.9787 14.5581 39.144 13.8008 39.144C13.0221 39.144 12.3181 38.952 11.6888 38.568C11.0594 38.184 10.5634 37.6453 10.2008 36.952C9.83808 36.2587 9.65675 35.4693 9.65675 34.584ZM17.0808 34.6C17.0808 33.9387 16.9474 33.3627 16.6808 32.872C16.4141 32.3813 16.0514 32.008 15.5928 31.752C15.1448 31.4853 14.6488 31.352 14.1048 31.352C13.5608 31.352 13.0648 31.48 12.6168 31.736C12.1688 31.992 11.8114 32.3653 11.5448 32.856C11.2781 33.3467 11.1448 33.9227 11.1448 34.584C11.1448 35.256 11.2781 35.8427 11.5448 36.344C11.8114 36.8347 12.1688 37.2133 12.6168 37.48C13.0648 37.736 13.5608 37.864 14.1048 37.864C14.6488 37.864 15.1448 37.736 15.5928 37.48C16.0514 37.2133 16.4141 36.8347 16.6808 36.344C16.9474 35.8427 17.0808 35.2613 17.0808 34.6ZM21.7653 28.808C21.4879 28.808 21.2533 28.712 21.0613 28.52C20.8693 28.328 20.7733 28.0933 20.7733 27.816C20.7733 27.5387 20.8693 27.304 21.0613 27.112C21.2533 26.92 21.4879 26.824 21.7653 26.824C22.0319 26.824 22.2559 26.92 22.4373 27.112C22.6293 27.304 22.7253 27.5387 22.7253 27.816C22.7253 28.0933 22.6293 28.328 22.4373 28.52C22.2559 28.712 22.0319 28.808 21.7653 28.808ZM22.4693 30.232V39H21.0133V30.232H22.4693ZM37.2164 34.28C37.2164 34.5573 37.2004 34.8507 37.1684 35.16H30.1604C30.2137 36.024 30.507 36.7013 31.0404 37.192C31.5844 37.672 32.2404 37.912 33.0084 37.912C33.6377 37.912 34.1604 37.768 34.5764 37.48C35.003 37.1813 35.3017 36.7867 35.4724 36.296H37.0404C36.8057 37.1387 36.3364 37.8267 35.6324 38.36C34.9284 38.8827 34.0537 39.144 33.0084 39.144C32.1764 39.144 31.4297 38.9573 30.7684 38.584C30.1177 38.2107 29.6057 37.6827 29.2324 37C28.859 36.3067 28.6724 35.5067 28.6724 34.6C28.6724 33.6933 28.8537 32.8987 29.2164 32.216C29.579 31.5333 30.0857 31.0107 30.7364 30.648C31.3977 30.2747 32.155 30.088 33.0084 30.088C33.8404 30.088 34.5764 30.2693 35.2164 30.632C35.8564 30.9947 36.347 31.496 36.6884 32.136C37.0404 32.7653 37.2164 33.48 37.2164 34.28ZM35.7124 33.976C35.7124 33.4213 35.5897 32.9467 35.3444 32.552C35.099 32.1467 34.763 31.8427 34.3364 31.64C33.9204 31.4267 33.4564 31.32 32.9444 31.32C32.2084 31.32 31.579 31.5547 31.0564 32.024C30.5444 32.4933 30.251 33.144 30.1764 33.976H35.7124ZM49.6823 30.072C50.3649 30.072 50.9729 30.216 51.5063 30.504C52.0396 30.7813 52.4609 31.2027 52.7703 31.768C53.0796 32.3333 53.2343 33.0213 53.2343 33.832V39H51.7943V34.04C51.7943 33.1653 51.5756 32.4987 51.1383 32.04C50.7116 31.5707 50.1303 31.336 49.3943 31.336C48.6369 31.336 48.0343 31.5813 47.5863 32.072C47.1383 32.552 46.9143 33.2507 46.9143 34.168V39H45.4743V34.04C45.4743 33.1653 45.2556 32.4987 44.8183 32.04C44.3916 31.5707 43.8103 31.336 43.0743 31.336C42.3169 31.336 41.7143 31.5813 41.2663 32.072C40.8183 32.552 40.5943 33.2507 40.5943 34.168V39H39.1383V30.232H40.5943V31.496C40.8823 31.0373 41.2663 30.6853 41.7463 30.44C42.2369 30.1947 42.7756 30.072 43.3623 30.072C44.0983 30.072 44.7489 30.2373 45.3143 30.568C45.8796 30.8987 46.3009 31.384 46.5783 32.024C46.8236 31.4053 47.2289 30.9253 47.7943 30.584C48.3596 30.2427 48.9889 30.072 49.6823 30.072ZM55.0786 34.584C55.0786 33.688 55.26 32.904 55.6226 32.232C55.9853 31.5493 56.4813 31.0213 57.1106 30.648C57.7506 30.2747 58.46 30.088 59.2386 30.088C60.0066 30.088 60.6733 30.2533 61.2386 30.584C61.804 30.9147 62.2253 31.3307 62.5026 31.832V30.232H63.9746V39H62.5026V37.368C62.2146 37.88 61.7826 38.3067 61.2066 38.648C60.6413 38.9787 59.98 39.144 59.2226 39.144C58.444 39.144 57.74 38.952 57.1106 38.568C56.4813 38.184 55.9853 37.6453 55.6226 36.952C55.26 36.2587 55.0786 35.4693 55.0786 34.584ZM62.5026 34.6C62.5026 33.9387 62.3693 33.3627 62.1026 32.872C61.836 32.3813 61.4733 32.008 61.0146 31.752C60.5666 31.4853 60.0706 31.352 59.5266 31.352C58.9826 31.352 58.4866 31.48 58.0386 31.736C57.5906 31.992 57.2333 32.3653 56.9666 32.856C56.7 33.3467 56.5666 33.9227 56.5666 34.584C56.5666 35.256 56.7 35.8427 56.9666 36.344C57.2333 36.8347 57.5906 37.2133 58.0386 37.48C58.4866 37.736 58.9826 37.864 59.5266 37.864C60.0706 37.864 60.5666 37.736 61.0146 37.48C61.4733 37.2133 61.836 36.8347 62.1026 36.344C62.3693 35.8427 62.5026 35.2613 62.5026 34.6ZM67.1871 28.808C66.9098 28.808 66.6751 28.712 66.4831 28.52C66.2911 28.328 66.1951 28.0933 66.1951 27.816C66.1951 27.5387 66.2911 27.304 66.4831 27.112C66.6751 26.92 66.9098 26.824 67.1871 26.824C67.4538 26.824 67.6778 26.92 67.8591 27.112C68.0511 27.304 68.1471 27.5387 68.1471 27.816C68.1471 28.0933 68.0511 28.328 67.8591 28.52C67.6778 28.712 67.4538 28.808 67.1871 28.808ZM67.8911 30.232V39H66.4351V30.232H67.8911ZM71.8286 27.16V39H70.3726V27.16H71.8286Z" fill="#B6C197"/>
</svg>
