<svg width="102" height="15" viewBox="0 0 102 15" fill="none" xmlns="http://www.w3.org/2000/svg">
<path d="M5.14286 6.28571C5.14286 6.13393 5.08036 5.99107 4.97321 5.88393L0.973214 1.88393C0.866071 1.77678 0.723214 1.71428 0.571429 1.71428C0.258929 1.71428 0 1.97321 0 2.28571V10.2857C0 10.5982 0.258929 10.8571 0.571429 10.8571C0.723214 10.8571 0.866071 10.7946 0.973214 10.6875L4.97321 6.6875C5.08036 6.58036 5.14286 6.4375 5.14286 6.28571ZM20.97 12L18.634 7.76H17.978V12H15.242V0.768H19.834C20.7193 0.768 21.4713 0.922666 22.09 1.232C22.7193 1.54133 23.1887 1.968 23.498 2.512C23.8073 3.04533 23.962 3.64267 23.962 4.304C23.962 5.05067 23.7487 5.71733 23.322 6.304C22.906 6.89067 22.2873 7.30667 21.466 7.552L24.058 12H20.97ZM17.978 5.824H19.674C20.1753 5.824 20.5487 5.70133 20.794 5.456C21.05 5.21067 21.178 4.864 21.178 4.416C21.178 3.98933 21.05 3.65333 20.794 3.408C20.5487 3.16267 20.1753 3.04 19.674 3.04H17.978V5.824ZM34.0955 7.392C34.0955 7.648 34.0795 7.91467 34.0475 8.192H27.8555C27.8982 8.74667 28.0742 9.17333 28.3835 9.472C28.7035 9.76 29.0928 9.904 29.5515 9.904C30.2342 9.904 30.7088 9.616 30.9755 9.04H33.8875C33.7382 9.62667 33.4662 10.1547 33.0715 10.624C32.6875 11.0933 32.2022 11.4613 31.6155 11.728C31.0288 11.9947 30.3728 12.128 29.6475 12.128C28.7728 12.128 27.9942 11.9413 27.3115 11.568C26.6288 11.1947 26.0955 10.6613 25.7115 9.968C25.3275 9.27467 25.1355 8.464 25.1355 7.536C25.1355 6.608 25.3222 5.79733 25.6955 5.104C26.0795 4.41067 26.6128 3.87733 27.2955 3.504C27.9782 3.13067 28.7622 2.944 29.6475 2.944C30.5115 2.944 31.2795 3.12533 31.9515 3.488C32.6235 3.85067 33.1462 4.368 33.5195 5.04C33.9035 5.712 34.0955 6.496 34.0955 7.392ZM31.2955 6.672C31.2955 6.20267 31.1355 5.82933 30.8155 5.552C30.4955 5.27467 30.0955 5.136 29.6155 5.136C29.1568 5.136 28.7675 5.26933 28.4475 5.536C28.1382 5.80267 27.9462 6.18133 27.8715 6.672H31.2955ZM34.9949 7.52C34.9949 6.60267 35.1655 5.79733 35.5069 5.104C35.8589 4.41067 36.3335 3.87733 36.9309 3.504C37.5282 3.13067 38.1949 2.944 38.9309 2.944C39.5602 2.944 40.1095 3.072 40.5789 3.328C41.0589 3.584 41.4269 3.92 41.6829 4.336V3.072H44.4189V12H41.6829V10.736C41.4162 11.152 41.0429 11.488 40.5629 11.744C40.0935 12 39.5442 12.128 38.9149 12.128C38.1895 12.128 37.5282 11.9413 36.9309 11.568C36.3335 11.184 35.8589 10.6453 35.5069 9.952C35.1655 9.248 34.9949 8.43733 34.9949 7.52ZM41.6829 7.536C41.6829 6.85333 41.4909 6.31467 41.1069 5.92C40.7335 5.52533 40.2749 5.328 39.7309 5.328C39.1869 5.328 38.7229 5.52533 38.3389 5.92C37.9655 6.304 37.7789 6.83733 37.7789 7.52C37.7789 8.20267 37.9655 8.74667 38.3389 9.152C38.7229 9.54667 39.1869 9.744 39.7309 9.744C40.2749 9.744 40.7335 9.54667 41.1069 9.152C41.4909 8.75733 41.6829 8.21867 41.6829 7.536ZM45.8543 7.52C45.8543 6.60267 46.0249 5.79733 46.3663 5.104C46.7183 4.41067 47.1929 3.87733 47.7903 3.504C48.3876 3.13067 49.0543 2.944 49.7903 2.944C50.3769 2.944 50.9103 3.06667 51.3903 3.312C51.8809 3.55733 52.2649 3.888 52.5423 4.304V0.16H55.2783V12H52.5423V10.72C52.2863 11.1467 51.9183 11.488 51.4383 11.744C50.9689 12 50.4196 12.128 49.7903 12.128C49.0543 12.128 48.3876 11.9413 47.7903 11.568C47.1929 11.184 46.7183 10.6453 46.3663 9.952C46.0249 9.248 45.8543 8.43733 45.8543 7.52ZM52.5423 7.536C52.5423 6.85333 52.3503 6.31467 51.9663 5.92C51.5929 5.52533 51.1343 5.328 50.5903 5.328C50.0463 5.328 49.5823 5.52533 49.1983 5.92C48.8249 6.304 48.6383 6.83733 48.6383 7.52C48.6383 8.20267 48.8249 8.74667 49.1983 9.152C49.5823 9.54667 50.0463 9.744 50.5903 9.744C51.1343 9.744 51.5929 9.54667 51.9663 9.152C52.3503 8.75733 52.5423 8.21867 52.5423 7.536ZM73.3683 0.768V12H70.6323V5.264L68.1203 12H65.9123L63.3843 5.248V12H60.6483V0.768H63.8802L67.0323 8.544L70.1523 0.768H73.3683ZM79.3998 12.128C78.5251 12.128 77.7358 11.9413 77.0318 11.568C76.3384 11.1947 75.7891 10.6613 75.3838 9.968C74.9891 9.27467 74.7918 8.464 74.7918 7.536C74.7918 6.61867 74.9944 5.81333 75.3997 5.12C75.8051 4.416 76.3598 3.87733 77.0638 3.504C77.7678 3.13067 78.5571 2.944 79.4318 2.944C80.3064 2.944 81.0958 3.13067 81.7998 3.504C82.5038 3.87733 83.0584 4.416 83.4638 5.12C83.8691 5.81333 84.0718 6.61867 84.0718 7.536C84.0718 8.45333 83.8638 9.264 83.4478 9.968C83.0424 10.6613 82.4824 11.1947 81.7678 11.568C81.0638 11.9413 80.2744 12.128 79.3998 12.128ZM79.3998 9.76C79.9224 9.76 80.3651 9.568 80.7278 9.184C81.1011 8.8 81.2878 8.25067 81.2878 7.536C81.2878 6.82133 81.1064 6.272 80.7438 5.888C80.3918 5.504 79.9544 5.312 79.4318 5.312C78.8984 5.312 78.4558 5.504 78.1038 5.888C77.7518 6.26133 77.5758 6.81067 77.5758 7.536C77.5758 8.25067 77.7464 8.8 78.0878 9.184C78.4398 9.568 78.8771 9.76 79.3998 9.76ZM88.2593 4.56C88.5793 4.06933 88.9793 3.68533 89.4593 3.408C89.9393 3.12 90.4726 2.976 91.0593 2.976V5.872H90.3073C89.6246 5.872 89.1126 6.02133 88.7713 6.32C88.4299 6.608 88.2593 7.12 88.2593 7.856V12H85.5233V3.072H88.2593V4.56ZM100.783 7.392C100.783 7.648 100.767 7.91467 100.735 8.192H94.543C94.5857 8.74667 94.7617 9.17333 95.071 9.472C95.391 9.76 95.7803 9.904 96.239 9.904C96.9217 9.904 97.3963 9.616 97.663 9.04H100.575C100.426 9.62667 100.154 10.1547 99.759 10.624C99.375 11.0933 98.8897 11.4613 98.303 11.728C97.7163 11.9947 97.0603 12.128 96.335 12.128C95.4603 12.128 94.6817 11.9413 93.999 11.568C93.3163 11.1947 92.783 10.6613 92.399 9.968C92.015 9.27467 91.823 8.464 91.823 7.536C91.823 6.608 92.0097 5.79733 92.383 5.104C92.767 4.41067 93.3003 3.87733 93.983 3.504C94.6657 3.13067 95.4497 2.944 96.335 2.944C97.199 2.944 97.967 3.12533 98.639 3.488C99.311 3.85067 99.8337 4.368 100.207 5.04C100.591 5.712 100.783 6.496 100.783 7.392ZM97.983 6.672C97.983 6.20267 97.823 5.82933 97.503 5.552C97.183 5.27467 96.783 5.136 96.303 5.136C95.8443 5.136 95.455 5.26933 95.135 5.536C94.8257 5.80267 94.6337 6.18133 94.559 6.672H97.983Z" fill="#D4D6D4"/>
<path d="M5.71875 13.6H14.2564V14.4H5.71875V13.6Z" fill="#D4D6D4"/>
<path d="M14.25 13.6H101.231V14.4H14.25V13.6Z" fill="#D4D6D4"/>
</svg>
