<svg width="141" height="17" viewBox="0 0 141 17" fill="none" xmlns="http://www.w3.org/2000/svg">
<path d="M5.14286 6.28571C5.14286 6.13393 5.08036 5.99107 4.97321 5.88393L0.973214 1.88393C0.866071 1.77678 0.723214 1.71428 0.571429 1.71428C0.258929 1.71428 0 1.97321 0 2.28571V10.2857C0 10.5982 0.258929 10.8571 0.571429 10.8571C0.723214 10.8571 0.866071 10.7946 0.973214 10.6875L4.97321 6.6875C5.08036 6.58036 5.14286 6.4375 5.14286 6.28571ZM19.306 12.112C18.4847 12.112 17.7487 11.9787 17.098 11.712C16.4473 11.4453 15.9247 11.0507 15.53 10.528C15.146 10.0053 14.9433 9.376 14.922 8.64H17.834C17.8767 9.056 18.0207 9.376 18.266 9.6C18.5113 9.81333 18.8313 9.92 19.226 9.92C19.6313 9.92 19.9513 9.82933 20.186 9.648C20.4207 9.456 20.538 9.19467 20.538 8.864C20.538 8.58667 20.442 8.35733 20.25 8.176C20.0687 7.99467 19.8393 7.84533 19.562 7.728C19.2953 7.61067 18.9113 7.47733 18.41 7.328C17.6847 7.104 17.0927 6.88 16.634 6.656C16.1753 6.432 15.7807 6.10133 15.45 5.664C15.1193 5.22667 14.954 4.656 14.954 3.952C14.954 2.90667 15.3327 2.09067 16.09 1.504C16.8473 0.906666 17.834 0.608 19.05 0.608C20.2873 0.608 21.2847 0.906666 22.042 1.504C22.7993 2.09067 23.2047 2.912 23.258 3.968H20.298C20.2767 3.60533 20.1433 3.32267 19.898 3.12C19.6527 2.90667 19.338 2.8 18.954 2.8C18.6233 2.8 18.3567 2.89067 18.154 3.072C17.9513 3.24267 17.85 3.49333 17.85 3.824C17.85 4.18667 18.0207 4.46933 18.362 4.672C18.7033 4.87467 19.2367 5.09333 19.962 5.328C20.6873 5.57333 21.274 5.808 21.722 6.032C22.1807 6.256 22.5753 6.58133 22.906 7.008C23.2367 7.43467 23.402 7.984 23.402 8.656C23.402 9.296 23.2367 9.87733 22.906 10.4C22.586 10.9227 22.1167 11.3387 21.498 11.648C20.8793 11.9573 20.1487 12.112 19.306 12.112ZM33.5017 7.392C33.5017 7.648 33.4858 7.91467 33.4538 8.192H27.2618C27.3044 8.74667 27.4804 9.17333 27.7898 9.472C28.1098 9.76 28.4991 9.904 28.9578 9.904C29.6404 9.904 30.1151 9.616 30.3818 9.04H33.2938C33.1444 9.62667 32.8724 10.1547 32.4778 10.624C32.0938 11.0933 31.6084 11.4613 31.0218 11.728C30.4351 11.9947 29.7791 12.128 29.0538 12.128C28.1791 12.128 27.4004 11.9413 26.7178 11.568C26.0351 11.1947 25.5018 10.6613 25.1178 9.968C24.7338 9.27467 24.5418 8.464 24.5418 7.536C24.5418 6.608 24.7284 5.79733 25.1018 5.104C25.4858 4.41067 26.0191 3.87733 26.7018 3.504C27.3844 3.13067 28.1684 2.944 29.0538 2.944C29.9178 2.944 30.6858 3.12533 31.3578 3.488C32.0298 3.85067 32.5524 4.368 32.9258 5.04C33.3098 5.712 33.5017 6.496 33.5017 7.392ZM30.7018 6.672C30.7018 6.20267 30.5418 5.82933 30.2218 5.552C29.9018 5.27467 29.5018 5.136 29.0218 5.136C28.5631 5.136 28.1738 5.26933 27.8538 5.536C27.5444 5.80267 27.3524 6.18133 27.2778 6.672H30.7018ZM43.3611 7.392C43.3611 7.648 43.3451 7.91467 43.3131 8.192H37.1211C37.1638 8.74667 37.3398 9.17333 37.6491 9.472C37.9691 9.76 38.3585 9.904 38.8171 9.904C39.4998 9.904 39.9745 9.616 40.2411 9.04H43.1531C43.0038 9.62667 42.7318 10.1547 42.3371 10.624C41.9531 11.0933 41.4678 11.4613 40.8811 11.728C40.2945 11.9947 39.6385 12.128 38.9131 12.128C38.0385 12.128 37.2598 11.9413 36.5771 11.568C35.8945 11.1947 35.3611 10.6613 34.9771 9.968C34.5931 9.27467 34.4011 8.464 34.4011 7.536C34.4011 6.608 34.5878 5.79733 34.9611 5.104C35.3451 4.41067 35.8785 3.87733 36.5611 3.504C37.2438 3.13067 38.0278 2.944 38.9131 2.944C39.7771 2.944 40.5451 3.12533 41.2171 3.488C41.8891 3.85067 42.4118 4.368 42.7851 5.04C43.1691 5.712 43.3611 6.496 43.3611 7.392ZM40.5611 6.672C40.5611 6.20267 40.4011 5.82933 40.0811 5.552C39.7611 5.27467 39.3611 5.136 38.8811 5.136C38.4225 5.136 38.0331 5.26933 37.7131 5.536C37.4038 5.80267 37.2118 6.18133 37.1371 6.672H40.5611ZM47.7311 6.368C47.7311 5.25867 47.9711 4.272 48.4511 3.408C48.9311 2.53333 49.5978 1.856 50.4511 1.376C51.3151 0.885333 52.2911 0.639999 53.3791 0.639999C54.7125 0.639999 55.8538 0.991999 56.8031 1.696C57.7525 2.4 58.3871 3.36 58.7071 4.576H55.6991C55.4751 4.10667 55.1551 3.74933 54.7391 3.504C54.3338 3.25867 53.8698 3.136 53.3471 3.136C52.5045 3.136 51.8218 3.42933 51.2991 4.016C50.7765 4.60267 50.5151 5.38667 50.5151 6.368C50.5151 7.34933 50.7765 8.13333 51.2991 8.72C51.8218 9.30667 52.5045 9.6 53.3471 9.6C53.8698 9.6 54.3338 9.47733 54.7391 9.232C55.1551 8.98667 55.4751 8.62933 55.6991 8.16H58.7071C58.3871 9.376 57.7525 10.336 56.8031 11.04C55.8538 11.7333 54.7125 12.08 53.3791 12.08C52.2911 12.08 51.3151 11.84 50.4511 11.36C49.5978 10.8693 48.9311 10.192 48.4511 9.328C47.9711 8.464 47.7311 7.47733 47.7311 6.368ZM59.8386 7.52C59.8386 6.60267 60.0093 5.79733 60.3506 5.104C60.7026 4.41067 61.1773 3.87733 61.7746 3.504C62.372 3.13067 63.0386 2.944 63.7746 2.944C64.404 2.944 64.9533 3.072 65.4226 3.328C65.9026 3.584 66.2706 3.92 66.5266 4.336V3.072H69.2626V12H66.5266V10.736C66.26 11.152 65.8866 11.488 65.4066 11.744C64.9373 12 64.388 12.128 63.7586 12.128C63.0333 12.128 62.372 11.9413 61.7746 11.568C61.1773 11.184 60.7026 10.6453 60.3506 9.952C60.0093 9.248 59.8386 8.43733 59.8386 7.52ZM66.5266 7.536C66.5266 6.85333 66.3346 6.31467 65.9506 5.92C65.5773 5.52533 65.1186 5.328 64.5746 5.328C64.0306 5.328 63.5666 5.52533 63.1826 5.92C62.8093 6.304 62.6226 6.83733 62.6226 7.52C62.6226 8.20267 62.8093 8.74667 63.1826 9.152C63.5666 9.54667 64.0306 9.744 64.5746 9.744C65.1186 9.744 65.5773 9.54667 65.9506 9.152C66.3346 8.75733 66.5266 8.21867 66.5266 7.536ZM74.874 12.128C74.0953 12.128 73.402 11.9947 72.794 11.728C72.186 11.4613 71.706 11.0987 71.354 10.64C71.002 10.1707 70.8047 9.648 70.762 9.072H73.466C73.498 9.38133 73.642 9.632 73.898 9.824C74.154 10.016 74.4687 10.112 74.842 10.112C75.1833 10.112 75.4447 10.048 75.626 9.92C75.818 9.78133 75.914 9.60533 75.914 9.392C75.914 9.136 75.7807 8.94933 75.514 8.832C75.2473 8.704 74.8153 8.56533 74.218 8.416C73.578 8.26667 73.0447 8.112 72.618 7.952C72.1913 7.78133 71.8233 7.52 71.514 7.168C71.2047 6.80533 71.05 6.32 71.05 5.712C71.05 5.2 71.1887 4.736 71.466 4.32C71.754 3.89333 72.17 3.55733 72.714 3.312C73.2687 3.06667 73.9247 2.944 74.682 2.944C75.802 2.944 76.682 3.22133 77.322 3.776C77.9727 4.33067 78.346 5.06667 78.442 5.984H75.914C75.8713 5.67467 75.7327 5.42933 75.498 5.248C75.274 5.06667 74.9753 4.976 74.602 4.976C74.282 4.976 74.0367 5.04 73.866 5.168C73.6953 5.28533 73.61 5.45067 73.61 5.664C73.61 5.92 73.7433 6.112 74.01 6.24C74.2873 6.368 74.714 6.496 75.29 6.624C75.9513 6.79467 76.49 6.96533 76.906 7.136C77.322 7.296 77.6847 7.56267 77.994 7.936C78.314 8.29867 78.4793 8.78933 78.49 9.408C78.49 9.93067 78.3407 10.4 78.042 10.816C77.754 11.2213 77.3327 11.5413 76.778 11.776C76.234 12.0107 75.5993 12.128 74.874 12.128ZM88.5799 7.392C88.5799 7.648 88.5639 7.91467 88.5319 8.192H82.3399C82.3825 8.74667 82.5585 9.17333 82.8679 9.472C83.1879 9.76 83.5772 9.904 84.0359 9.904C84.7185 9.904 85.1932 9.616 85.4599 9.04H88.3719C88.2225 9.62667 87.9505 10.1547 87.5559 10.624C87.1719 11.0933 86.6865 11.4613 86.0999 11.728C85.5132 11.9947 84.8572 12.128 84.1319 12.128C83.2572 12.128 82.4785 11.9413 81.7959 11.568C81.1132 11.1947 80.5799 10.6613 80.1959 9.968C79.8119 9.27467 79.6199 8.464 79.6199 7.536C79.6199 6.608 79.8065 5.79733 80.1799 5.104C80.5639 4.41067 81.0972 3.87733 81.7799 3.504C82.4625 3.13067 83.2465 2.944 84.1319 2.944C84.9959 2.944 85.7639 3.12533 86.4359 3.488C87.1079 3.85067 87.6305 4.368 88.0039 5.04C88.3879 5.712 88.5799 6.496 88.5799 7.392ZM85.7799 6.672C85.7799 6.20267 85.6199 5.82933 85.2999 5.552C84.9799 5.27467 84.5799 5.136 84.0999 5.136C83.6412 5.136 83.2519 5.26933 82.9319 5.536C82.6225 5.80267 82.4305 6.18133 82.3559 6.672H85.7799ZM97.4779 12.112C96.6565 12.112 95.9205 11.9787 95.2699 11.712C94.6192 11.4453 94.0965 11.0507 93.7019 10.528C93.3179 10.0053 93.1152 9.376 93.0939 8.64H96.0059C96.0485 9.056 96.1925 9.376 96.4379 9.6C96.6832 9.81333 97.0032 9.92 97.3979 9.92C97.8032 9.92 98.1232 9.82933 98.3579 9.648C98.5925 9.456 98.7099 9.19467 98.7099 8.864C98.7099 8.58667 98.6139 8.35733 98.4219 8.176C98.2405 7.99467 98.0112 7.84533 97.7339 7.728C97.4672 7.61067 97.0832 7.47733 96.5819 7.328C95.8565 7.104 95.2645 6.88 94.8059 6.656C94.3472 6.432 93.9525 6.10133 93.6219 5.664C93.2912 5.22667 93.1259 4.656 93.1259 3.952C93.1259 2.90667 93.5045 2.09067 94.2619 1.504C95.0192 0.906666 96.0059 0.608 97.2219 0.608C98.4592 0.608 99.4565 0.906666 100.214 1.504C100.971 2.09067 101.377 2.912 101.43 3.968H98.4699C98.4485 3.60533 98.3152 3.32267 98.0699 3.12C97.8245 2.90667 97.5099 2.8 97.1259 2.8C96.7952 2.8 96.5285 2.89067 96.3259 3.072C96.1232 3.24267 96.0219 3.49333 96.0219 3.824C96.0219 4.18667 96.1925 4.46933 96.5339 4.672C96.8752 4.87467 97.4085 5.09333 98.1339 5.328C98.8592 5.57333 99.4459 5.808 99.8939 6.032C100.353 6.256 100.747 6.58133 101.078 7.008C101.409 7.43467 101.574 7.984 101.574 8.656C101.574 9.296 101.409 9.87733 101.078 10.4C100.758 10.9227 100.289 11.3387 99.6699 11.648C99.0512 11.9573 98.3205 12.112 97.4779 12.112ZM108.234 9.68V12H106.842C105.85 12 105.076 11.76 104.522 11.28C103.967 10.7893 103.69 9.99467 103.69 8.896V5.344H102.602V3.072H103.69V0.896H106.426V3.072H108.218V5.344H106.426V8.928C106.426 9.19467 106.49 9.38667 106.618 9.504C106.746 9.62133 106.959 9.68 107.258 9.68H108.234ZM118.574 3.072V12H115.838V10.784C115.56 11.1787 115.182 11.4987 114.702 11.744C114.232 11.9787 113.71 12.096 113.134 12.096C112.451 12.096 111.848 11.9467 111.326 11.648C110.803 11.3387 110.398 10.896 110.11 10.32C109.822 9.744 109.678 9.06667 109.678 8.288V3.072H112.398V7.92C112.398 8.51733 112.552 8.98133 112.862 9.312C113.171 9.64267 113.587 9.808 114.11 9.808C114.643 9.808 115.064 9.64267 115.374 9.312C115.683 8.98133 115.838 8.51733 115.838 7.92V3.072H118.574ZM119.995 7.52C119.995 6.60267 120.166 5.79733 120.507 5.104C120.859 4.41067 121.334 3.87733 121.931 3.504C122.528 3.13067 123.195 2.944 123.931 2.944C124.518 2.944 125.051 3.06667 125.531 3.312C126.022 3.55733 126.406 3.888 126.683 4.304V0.16H129.419V12H126.683V10.72C126.427 11.1467 126.059 11.488 125.579 11.744C125.11 12 124.56 12.128 123.931 12.128C123.195 12.128 122.528 11.9413 121.931 11.568C121.334 11.184 120.859 10.6453 120.507 9.952C120.166 9.248 119.995 8.43733 119.995 7.52ZM126.683 7.536C126.683 6.85333 126.491 6.31467 126.107 5.92C125.734 5.52533 125.275 5.328 124.731 5.328C124.187 5.328 123.723 5.52533 123.339 5.92C122.966 6.304 122.779 6.83733 122.779 7.52C122.779 8.20267 122.966 8.74667 123.339 9.152C123.723 9.54667 124.187 9.744 124.731 9.744C125.275 9.744 125.734 9.54667 126.107 9.152C126.491 8.75733 126.683 8.21867 126.683 7.536ZM140.518 3.072L134.918 16.24H131.974L134.022 11.696L130.39 3.072H133.446L135.51 8.656L137.558 3.072H140.518Z" fill="#D4D6D4"/>
<path d="M5.71875 13.6H14.2564V14.4H5.71875V13.6Z" fill="#D4D6D4"/>
<path d="M14.25 13.6H140.518V14.4H14.25V13.6Z" fill="#D4D6D4"/>
</svg>
