<svg width="181" height="15" viewBox="0 0 181 15" fill="none" xmlns="http://www.w3.org/2000/svg">
<path d="M5.14286 6.28571C5.14286 6.13393 5.08036 5.99107 4.97321 5.88393L0.973214 1.88393C0.866071 1.77678 0.723214 1.71428 0.571429 1.71428C0.258929 1.71428 0 1.97321 0 2.28571V10.2857C0 10.5982 0.258929 10.8571 0.571429 10.8571C0.723214 10.8571 0.866071 10.7946 0.973214 10.6875L4.97321 6.6875C5.08036 6.58036 5.14286 6.4375 5.14286 6.28571ZM27.962 0.768V12H25.226V5.264L22.714 12H20.506L17.978 5.248V12H15.242V0.768H18.474L21.626 8.544L24.746 0.768H27.962ZM33.9935 12.128C33.1188 12.128 32.3295 11.9413 31.6255 11.568C30.9322 11.1947 30.3828 10.6613 29.9775 9.968C29.5828 9.27467 29.3855 8.464 29.3855 7.536C29.3855 6.61867 29.5882 5.81333 29.9935 5.12C30.3988 4.416 30.9535 3.87733 31.6575 3.504C32.3615 3.13067 33.1508 2.944 34.0255 2.944C34.9002 2.944 35.6895 3.13067 36.3935 3.504C37.0975 3.87733 37.6522 4.416 38.0575 5.12C38.4628 5.81333 38.6655 6.61867 38.6655 7.536C38.6655 8.45333 38.4575 9.264 38.0415 9.968C37.6362 10.6613 37.0762 11.1947 36.3615 11.568C35.6575 11.9413 34.8682 12.128 33.9935 12.128ZM33.9935 9.76C34.5162 9.76 34.9588 9.568 35.3215 9.184C35.6948 8.8 35.8815 8.25067 35.8815 7.536C35.8815 6.82133 35.7002 6.272 35.3375 5.888C34.9855 5.504 34.5482 5.312 34.0255 5.312C33.4922 5.312 33.0495 5.504 32.6975 5.888C32.3455 6.26133 32.1695 6.81067 32.1695 7.536C32.1695 8.25067 32.3402 8.8 32.6815 9.184C33.0335 9.568 33.4708 9.76 33.9935 9.76ZM42.853 4.56C43.173 4.06933 43.573 3.68533 44.053 3.408C44.533 3.12 45.0663 2.976 45.653 2.976V5.872H44.901C44.2183 5.872 43.7063 6.02133 43.365 6.32C43.0237 6.608 42.853 7.12 42.853 7.856V12H40.117V3.072H42.853V4.56ZM55.3767 7.392C55.3767 7.648 55.3608 7.91467 55.3288 8.192H49.1368C49.1794 8.74667 49.3554 9.17333 49.6648 9.472C49.9848 9.76 50.3741 9.904 50.8328 9.904C51.5154 9.904 51.9901 9.616 52.2568 9.04H55.1688C55.0194 9.62667 54.7474 10.1547 54.3528 10.624C53.9688 11.0933 53.4834 11.4613 52.8968 11.728C52.3101 11.9947 51.6541 12.128 50.9288 12.128C50.0541 12.128 49.2754 11.9413 48.5928 11.568C47.9101 11.1947 47.3768 10.6613 46.9928 9.968C46.6088 9.27467 46.4168 8.464 46.4168 7.536C46.4168 6.608 46.6034 5.79733 46.9768 5.104C47.3608 4.41067 47.8941 3.87733 48.5768 3.504C49.2594 3.13067 50.0434 2.944 50.9288 2.944C51.7928 2.944 52.5608 3.12533 53.2328 3.488C53.9048 3.85067 54.4274 4.368 54.8008 5.04C55.1848 5.712 55.3767 6.496 55.3767 7.392ZM52.5768 6.672C52.5768 6.20267 52.4168 5.82933 52.0968 5.552C51.7768 5.27467 51.3768 5.136 50.8968 5.136C50.4381 5.136 50.0488 5.26933 49.7288 5.536C49.4194 5.80267 49.2274 6.18133 49.1528 6.672H52.5768ZM65.6668 12L62.9468 8.256V12H60.2108V0.16H62.9468V6.704L65.6508 3.072H69.0268L65.3148 7.552L69.0588 12H65.6668ZM75.5414 2.976C76.5867 2.976 77.4187 3.31733 78.0374 4C78.6667 4.672 78.9814 5.6 78.9814 6.784V12H76.2614V7.152C76.2614 6.55467 76.1067 6.09067 75.7974 5.76C75.488 5.42933 75.072 5.264 74.5494 5.264C74.0267 5.264 73.6107 5.42933 73.3014 5.76C72.992 6.09067 72.8374 6.55467 72.8374 7.152V12H70.1014V3.072H72.8374V4.256C73.1147 3.86133 73.488 3.552 73.9574 3.328C74.4267 3.09333 74.9547 2.976 75.5414 2.976ZM84.9466 12.128C84.072 12.128 83.2826 11.9413 82.5786 11.568C81.8853 11.1947 81.336 10.6613 80.9306 9.968C80.536 9.27467 80.3386 8.464 80.3386 7.536C80.3386 6.61867 80.5413 5.81333 80.9466 5.12C81.352 4.416 81.9066 3.87733 82.6106 3.504C83.3146 3.13067 84.104 2.944 84.9786 2.944C85.8533 2.944 86.6426 3.13067 87.3466 3.504C88.0506 3.87733 88.6053 4.416 89.0106 5.12C89.416 5.81333 89.6186 6.61867 89.6186 7.536C89.6186 8.45333 89.4106 9.264 88.9946 9.968C88.5893 10.6613 88.0293 11.1947 87.3146 11.568C86.6106 11.9413 85.8213 12.128 84.9466 12.128ZM84.9466 9.76C85.4693 9.76 85.912 9.568 86.2746 9.184C86.648 8.8 86.8346 8.25067 86.8346 7.536C86.8346 6.82133 86.6533 6.272 86.2906 5.888C85.9386 5.504 85.5013 5.312 84.9786 5.312C84.4453 5.312 84.0026 5.504 83.6506 5.888C83.2986 6.26133 83.1226 6.81067 83.1226 7.536C83.1226 8.25067 83.2933 8.8 83.6346 9.184C83.9866 9.568 84.424 9.76 84.9466 9.76ZM103.886 3.072L101.47 12H98.4461L97.0381 6.208L95.5821 12H92.5741L90.1421 3.072H92.8781L94.1421 9.456L95.6461 3.072H98.5421L100.062 9.424L101.31 3.072H103.886ZM115.312 10.016H111.12L110.448 12H107.584L111.648 0.768H114.816L118.88 12H115.984L115.312 10.016ZM114.608 7.904L113.216 3.792L111.84 7.904H114.608ZM122.853 4.336C123.109 3.92 123.477 3.584 123.957 3.328C124.437 3.072 124.986 2.944 125.605 2.944C126.341 2.944 127.008 3.13067 127.605 3.504C128.202 3.87733 128.672 4.41067 129.013 5.104C129.365 5.79733 129.541 6.60267 129.541 7.52C129.541 8.43733 129.365 9.248 129.013 9.952C128.672 10.6453 128.202 11.184 127.605 11.568C127.008 11.9413 126.341 12.128 125.605 12.128C124.976 12.128 124.426 12.0053 123.957 11.76C123.488 11.504 123.12 11.168 122.853 10.752V12H120.117V0.16H122.853V4.336ZM126.757 7.52C126.757 6.83733 126.565 6.304 126.181 5.92C125.808 5.52533 125.344 5.328 124.789 5.328C124.245 5.328 123.781 5.52533 123.397 5.92C123.024 6.31467 122.837 6.85333 122.837 7.536C122.837 8.21867 123.024 8.75733 123.397 9.152C123.781 9.54667 124.245 9.744 124.789 9.744C125.333 9.744 125.797 9.54667 126.181 9.152C126.565 8.74667 126.757 8.20267 126.757 7.52ZM135.04 12.128C134.166 12.128 133.376 11.9413 132.672 11.568C131.979 11.1947 131.43 10.6613 131.024 9.968C130.63 9.27467 130.432 8.464 130.432 7.536C130.432 6.61867 130.635 5.81333 131.04 5.12C131.446 4.416 132 3.87733 132.704 3.504C133.408 3.13067 134.198 2.944 135.072 2.944C135.947 2.944 136.736 3.13067 137.44 3.504C138.144 3.87733 138.699 4.416 139.104 5.12C139.51 5.81333 139.712 6.61867 139.712 7.536C139.712 8.45333 139.504 9.264 139.088 9.968C138.683 10.6613 138.123 11.1947 137.408 11.568C136.704 11.9413 135.915 12.128 135.04 12.128ZM135.04 9.76C135.563 9.76 136.006 9.568 136.368 9.184C136.742 8.8 136.928 8.25067 136.928 7.536C136.928 6.82133 136.747 6.272 136.384 5.888C136.032 5.504 135.595 5.312 135.072 5.312C134.539 5.312 134.096 5.504 133.744 5.888C133.392 6.26133 133.216 6.81067 133.216 7.536C133.216 8.25067 133.387 8.8 133.728 9.184C134.08 9.568 134.518 9.76 135.04 9.76ZM149.98 3.072V12H147.244V10.784C146.967 11.1787 146.588 11.4987 146.108 11.744C145.639 11.9787 145.116 12.096 144.54 12.096C143.857 12.096 143.255 11.9467 142.732 11.648C142.209 11.3387 141.804 10.896 141.516 10.32C141.228 9.744 141.084 9.06667 141.084 8.288V3.072H143.804V7.92C143.804 8.51733 143.959 8.98133 144.268 9.312C144.577 9.64267 144.993 9.808 145.516 9.808C146.049 9.808 146.471 9.64267 146.78 9.312C147.089 8.98133 147.244 8.51733 147.244 7.92V3.072H149.98ZM156.921 9.68V12H155.529C154.537 12 153.764 11.76 153.209 11.28C152.654 10.7893 152.377 9.99467 152.377 8.896V5.344H151.289V3.072H152.377V0.896H155.113V3.072H156.905V5.344H155.113V8.928C155.113 9.19467 155.177 9.38667 155.305 9.504C155.433 9.62133 155.646 9.68 155.945 9.68H156.921ZM170.652 3.072V12H167.916V10.784C167.638 11.1787 167.26 11.4987 166.78 11.744C166.31 11.9787 165.788 12.096 165.212 12.096C164.529 12.096 163.926 11.9467 163.404 11.648C162.881 11.3387 162.476 10.896 162.188 10.32C161.9 9.744 161.756 9.06667 161.756 8.288V3.072H164.476V7.92C164.476 8.51733 164.63 8.98133 164.94 9.312C165.249 9.64267 165.665 9.808 166.188 9.808C166.721 9.808 167.142 9.64267 167.452 9.312C167.761 8.98133 167.916 8.51733 167.916 7.92V3.072H170.652ZM176.249 12.128C175.47 12.128 174.777 11.9947 174.169 11.728C173.561 11.4613 173.081 11.0987 172.729 10.64C172.377 10.1707 172.18 9.648 172.137 9.072H174.841C174.873 9.38133 175.017 9.632 175.273 9.824C175.529 10.016 175.844 10.112 176.217 10.112C176.558 10.112 176.82 10.048 177.001 9.92C177.193 9.78133 177.289 9.60533 177.289 9.392C177.289 9.136 177.156 8.94933 176.889 8.832C176.622 8.704 176.19 8.56533 175.593 8.416C174.953 8.26667 174.42 8.112 173.993 7.952C173.566 7.78133 173.198 7.52 172.889 7.168C172.58 6.80533 172.425 6.32 172.425 5.712C172.425 5.2 172.564 4.736 172.841 4.32C173.129 3.89333 173.545 3.55733 174.089 3.312C174.644 3.06667 175.3 2.944 176.057 2.944C177.177 2.944 178.057 3.22133 178.697 3.776C179.348 4.33067 179.721 5.06667 179.817 5.984H177.289C177.246 5.67467 177.108 5.42933 176.873 5.248C176.649 5.06667 176.35 4.976 175.977 4.976C175.657 4.976 175.412 5.04 175.241 5.168C175.07 5.28533 174.985 5.45067 174.985 5.664C174.985 5.92 175.118 6.112 175.385 6.24C175.662 6.368 176.089 6.496 176.665 6.624C177.326 6.79467 177.865 6.96533 178.281 7.136C178.697 7.296 179.06 7.56267 179.369 7.936C179.689 8.29867 179.854 8.78933 179.865 9.408C179.865 9.93067 179.716 10.4 179.417 10.816C179.129 11.2213 178.708 11.5413 178.153 11.776C177.609 12.0107 176.974 12.128 176.249 12.128Z" fill="#D4D6D4"/>
<path d="M5.71875 13.6H14.2564V14.4H5.71875V13.6Z" fill="#D4D6D4"/>
<path d="M14.25 13.6H180.553V14.4H14.25V13.6Z" fill="#D4D6D4"/>
</svg>
